<svg preserveAspectRatio="none" width="100%" height="100%" overflow="visible" style="display: block;" viewBox="0 0 84 84" fill="none" xmlns="http://www.w3.org/2000/svg">
<g id="Frame" clip-path="url(#clip0_0_5)">
<path id="Vector" d="M2.75953 1.39045L3.10824 2.32769L3.72204 2.09932L3.37333 1.16208L3.02463 0.224851L2.41083 0.45322L2.75953 1.39045ZM3.37333 1.16208L3.72204 2.09932C3.79725 2.07133 3.84895 2.07118 3.90133 2.08324L4.12573 1.10874L4.35013 0.134247C3.90091 0.0308051 3.45101 0.0662123 3.02463 0.224851L3.37333 1.16208ZM4.12573 1.10874L3.90133 2.08324L4.51513 2.22458L4.73953 1.25008L4.96393 0.275587L4.35013 0.134247L4.12573 1.10874ZM4.73953 1.25008L4.51513 2.22458L5.12893 2.36592L5.35333 1.39143L5.57773 0.416928L4.96393 0.275587L4.73953 1.25008ZM5.35333 1.39143L5.12893 2.36592C5.37951 2.42362 5.63009 2.48141 5.88067 2.5393L6.10573 1.56495L6.33079 0.590607C6.07977 0.532624 5.82875 0.474731 5.57773 0.416928L5.35333 1.39143ZM6.10573 1.56495L5.88067 2.5393L6.49447 2.68108L6.71953 1.70673L6.94459 0.732387L6.33079 0.590607L6.10573 1.56495ZM6.71953 1.70673L6.49447 2.68108L7.10827 2.82286L7.33333 1.84851L7.55839 0.874168L6.94459 0.732387L6.71953 1.70673ZM7.33333 1.84851L7.10827 2.82286C7.57574 2.93084 8.04053 2.88103 8.47324 2.69914L8.08573 1.77727L7.69822 0.855407C7.62933 0.884368 7.59252 0.882051 7.55839 0.874168L7.33333 1.84851ZM8.08573 1.77727L8.47324 2.69914L9.08704 2.44113L8.69953 1.51926L8.31202 0.597395L7.69822 0.855407L8.08573 1.77727ZM8.69953 1.51926L9.08704 2.44113L9.70084 2.18311L9.31333 1.26125L8.92582 0.339382L8.31202 0.597395L8.69953 1.51926ZM9.31333 1.26125L9.70084 2.18311C9.77299 2.15278 9.81339 2.15459 9.85 2.16268L10.0657 1.18623L10.2815 0.209774C9.81647 0.107042 9.35527 0.158863 8.92582 0.339382L9.31333 1.26125ZM10.0657 1.18623L9.85 2.16268L10.4638 2.29829L10.6795 1.32184L10.8953 0.345384L10.2815 0.209774L10.0657 1.18623ZM10.6795 1.32184L10.4638 2.29829L11.0776 2.4339L11.2933 1.45745L11.5091 0.480993L10.8953 0.345384L10.6795 1.32184ZM11.2933 1.45745L11.0776 2.4339C11.3221 2.48791 11.5666 2.54443 11.8112 2.60343L12.0457 1.63133L12.2803 0.659224C12.0232 0.597209 11.7662 0.537798 11.5091 0.480993L11.2933 1.45745ZM12.0457 1.63133L11.8112 2.60343L12.425 2.75153L12.6595 1.77942L12.8941 0.807318L12.2803 0.659224L12.0457 1.63133ZM12.6595 1.77942L12.425 2.75153L13.0388 2.89962L13.2733 1.92752L13.5079 0.955413L12.8941 0.807318L12.6595 1.77942ZM13.2733 1.92752L13.0388 2.89962C13.4477 2.99829 13.8631 2.99575 14.2708 2.89271L14.0257 1.9232L13.7807 0.953689C13.6867 0.977436 13.6005 0.977767 13.5079 0.955413L13.2733 1.92752ZM14.0257 1.9232L14.2708 2.89271L14.8846 2.73758L14.6395 1.76806L14.3945 0.798551L13.7807 0.953689L14.0257 1.9232ZM14.6395 1.76806L14.8846 2.73758L15.4984 2.58244L15.2533 1.61293L15.0083 0.643414L14.3945 0.798551L14.6395 1.76806ZM15.2533 1.61293L15.4984 2.58244C15.6471 2.54486 15.7891 2.53314 15.9287 2.54392L16.0057 1.54689L16.0827 0.54986C15.7207 0.521907 15.3612 0.554214 15.0083 0.643414L15.2533 1.61293ZM16.0057 1.54689L15.9287 2.54392L16.5425 2.59132L16.6195 1.59429L16.6965 0.597257L16.0827 0.54986L16.0057 1.54689ZM16.6195 1.59429L16.5425 2.59132L17.1563 2.63872L17.2333 1.64169L17.3103 0.644654L16.6965 0.597257L16.6195 1.59429ZM17.2333 1.64169L17.1563 2.63872C17.3228 2.65157 17.4943 2.68576 17.6724 2.74451L17.9857 1.79488L18.2991 0.845242C17.9755 0.738468 17.6454 0.670532 17.3103 0.644654L17.2333 1.64169ZM17.9857 1.79488L17.6724 2.74451L18.2862 2.94705L18.5995 1.99742L18.9129 1.04778L18.2991 0.845242L17.9857 1.79488ZM18.5995 1.99742L18.2862 2.94705L18.9 3.14959L19.2133 2.19996L19.5267 1.25033L18.9129 1.04778L18.5995 1.99742ZM19.2133 2.19996L18.9 3.14959C19.4038 3.31586 19.9166 3.27466 20.3859 3.05739L19.9657 2.14993L19.5456 1.24247C19.5324 1.24858 19.5245 1.25093 19.5217 1.25167C19.5191 1.25237 19.5198 1.25195 19.5232 1.25173C19.5266 1.2515 19.5299 1.25167 19.532 1.25195C19.5341 1.25222 19.5325 1.25225 19.5267 1.25033L19.2133 2.19996ZM19.9657 2.14993L20.3859 3.05739L20.9997 2.77321L20.5795 1.86575L20.1594 0.95829L19.5456 1.24247L19.9657 2.14993ZM20.5795 1.86575L20.9997 2.77321L21.6135 2.48904L21.1933 1.58158L20.7732 0.674114L20.1594 0.95829L20.5795 1.86575ZM21.1933 1.58158L21.6135 2.48904C21.6136 2.48899 21.6115 2.48996 21.6073 2.49139C21.603 2.49282 21.5969 2.49461 21.5891 2.49628C21.5727 2.49975 21.5527 2.50182 21.5311 2.50098C21.4842 2.49918 21.4614 2.48548 21.4707 2.49046L21.9457 1.61051L22.4208 0.730563C21.9028 0.450906 21.3204 0.420767 20.7732 0.674114L21.1933 1.58158ZM21.9457 1.61051L21.4707 2.49046L22.0845 2.82184L22.5595 1.94189L23.0346 1.06195L22.4208 0.730563L21.9457 1.61051ZM22.5595 1.94189L22.0845 2.82184L22.6983 3.15322L23.1733 2.27328L23.6484 1.39333L23.0346 1.06195L22.5595 1.94189ZM23.1733 2.27328L22.6983 3.15322C23.1799 3.41323 23.726 3.47571 24.2647 3.28166L23.9257 2.34085L23.5868 1.40004C23.5867 1.40007 23.5882 1.39953 23.5912 1.39879C23.5942 1.39804 23.5984 1.39718 23.6036 1.39647C23.6146 1.39499 23.6269 1.39464 23.639 1.39573C23.651 1.39681 23.6589 1.39893 23.6617 1.39982C23.6643 1.40063 23.6599 1.39956 23.6484 1.39333L23.1733 2.27328ZM23.9257 2.34085L24.2647 3.28166L24.8785 3.06053L24.5395 2.11972L24.2006 1.17891L23.5868 1.40004L23.9257 2.34085ZM24.5395 2.11972L24.8785 3.06053L25.4923 2.8394L25.1533 1.89859L24.8144 0.957785L24.2006 1.17891L24.5395 2.11972ZM25.1533 1.89859L25.4923 2.8394C25.6333 2.7886 25.7603 2.76961 25.8789 2.77278L25.9057 1.77314L25.9325 0.773502C25.5496 0.763241 25.175 0.827883 24.8144 0.957785L25.1533 1.89859ZM25.9057 1.77314L25.8789 2.77278L26.4927 2.78923L26.5195 1.78959L26.5463 0.789949L25.9325 0.773502L25.9057 1.77314ZM26.5195 1.78959L26.4927 2.78923L27.1065 2.80568L27.1333 1.80604L27.1601 0.806396L26.5463 0.789949L26.5195 1.78959ZM27.1333 1.80604L27.1065 2.80568C27.32 2.8114 27.5339 2.82907 27.7484 2.85881L27.8857 1.86829L28.0231 0.877767C27.736 0.83795 27.4483 0.814117 27.1601 0.806396L27.1333 1.80604ZM27.8857 1.86829L27.7484 2.85881L28.3622 2.94393L28.4995 1.95341L28.6369 0.962888L28.0231 0.877767L27.8857 1.86829ZM28.4995 1.95341L28.3622 2.94393L28.976 3.02905L29.1133 2.03853L29.2507 1.04801L28.6369 0.962888L28.4995 1.95341ZM29.1133 2.03853L28.976 3.02905C29.4296 3.09196 29.87 3.0161 30.2772 2.83231L29.8657 1.92087L29.4543 1.00944C29.3598 1.05208 29.2986 1.05465 29.2507 1.04801L29.1133 2.03853ZM29.8657 1.92087L30.2772 2.83231L30.891 2.55523L30.4795 1.64379L30.0681 0.732355L29.4543 1.00944L29.8657 1.92087ZM30.4795 1.64379L30.891 2.55523L31.5048 2.27814L31.0933 1.36671L30.6819 0.455272L30.0681 0.732355L30.4795 1.64379ZM31.0933 1.36671L31.5048 2.27814C31.495 2.28254 31.4748 2.29018 31.4455 2.29507C31.4156 2.30004 31.3833 2.30094 31.3515 2.29716C31.2855 2.28932 31.2594 2.2665 31.2783 2.27955L31.8457 1.45613L32.4132 0.63271C31.911 0.286646 31.2908 0.180397 30.6819 0.455272L31.0933 1.36671ZM31.8457 1.45613L31.2783 2.27955L31.8921 2.70253L32.4595 1.87911L33.027 1.05569L32.4132 0.63271L31.8457 1.45613ZM32.4595 1.87911L31.8921 2.70253L32.5059 3.12551L33.0733 2.30209L33.6408 1.47867L33.027 1.05569L32.4595 1.87911ZM33.0733 2.30209L32.5059 3.12551C32.7696 3.30722 33.1026 3.43808 33.4855 3.42429C33.8647 3.41063 34.184 3.259 34.4314 3.07069L33.8257 2.27498L33.2201 1.47927C33.2166 1.48187 33.2851 1.43021 33.4135 1.42559C33.5456 1.42083 33.6279 1.46979 33.6408 1.47867L33.0733 2.30209ZM33.8257 2.27498L34.4314 3.07069L35.0452 2.60349L34.4395 1.80777L33.8339 1.01206L33.2201 1.47927L33.8257 2.27498ZM34.4395 1.80777L35.0452 2.60349L35.659 2.13628L35.0533 1.34056L34.4477 0.544853L33.8339 1.01206L34.4395 1.80777ZM35.0533 1.34056L35.659 2.13628C35.7111 2.0966 35.7364 2.08893 35.7344 2.08958C35.7332 2.08997 35.7269 2.09178 35.7167 2.0928C35.7063 2.09383 35.6955 2.09369 35.6856 2.09249L35.8057 1.09974L35.9259 0.10698C35.3564 0.0380656 34.8516 0.237398 34.4477 0.544853L35.0533 1.34056ZM35.8057 1.09974L35.6856 2.09249L36.2994 2.16677L36.4195 1.17402L36.5397 0.181261L35.9259 0.10698L35.8057 1.09974ZM36.4195 1.17402L36.2994 2.16677L36.9132 2.24106L37.0333 1.2483L37.1535 0.255542L36.5397 0.181261L36.4195 1.17402ZM37.0333 1.2483L36.9132 2.24106C37.1679 2.27188 37.4226 2.30118 37.6773 2.32896L37.7857 1.33485L37.8941 0.340742C37.6473 0.31382 37.4004 0.28542 37.1535 0.255542L37.0333 1.2483ZM37.7857 1.33485L37.6773 2.32896L38.2911 2.39589L38.3995 1.40178L38.5079 0.407674L37.8941 0.340742L37.7857 1.33485ZM38.3995 1.40178L38.2911 2.39589L38.9049 2.46282L39.0133 1.46871L39.1217 0.474607L38.5079 0.407674L38.3995 1.40178ZM39.0133 1.46871L38.9049 2.46282C39.2416 2.49954 39.5787 2.49254 39.9141 2.44224L39.7657 1.4533L39.6174 0.464367C39.4511 0.489306 39.2866 0.492588 39.1217 0.474607L39.0133 1.46871ZM39.7657 1.4533L39.9141 2.44224L40.5279 2.35016L40.3795 1.36122L40.2312 0.372289L39.6174 0.464367L39.7657 1.4533ZM40.3795 1.36122L40.5279 2.35016L41.1417 2.25808L40.9933 1.26914L40.845 0.28021L40.2312 0.372289L40.3795 1.36122ZM40.9933 1.26914L41.1417 2.25808C41.1376 2.25869 41.132 2.25905 41.126 2.25872C41.1201 2.25839 41.1167 2.25754 41.117 2.25761C41.1173 2.25768 41.1407 2.26376 41.188 2.29552L41.7457 1.46552L42.3035 0.635533C41.8874 0.355925 41.3886 0.198658 40.845 0.28021L40.9933 1.26914ZM41.7457 1.46552L41.188 2.29552L41.8018 2.70801L42.3595 1.87801L42.9173 1.04802L42.3035 0.635533L41.7457 1.46552ZM42.3595 1.87801L41.8018 2.70801L42.4156 3.1205L42.9733 2.2905L43.5311 1.46051L42.9173 1.04802L42.3595 1.87801ZM42.9733 2.2905L42.4156 3.1205C42.9223 3.46105 43.5408 3.55576 44.1426 3.27976L43.7257 2.37079L43.3089 1.46182C43.3311 1.45162 43.3856 1.43516 43.4556 1.44263C43.521 1.4496 43.5481 1.47195 43.5311 1.46051L42.9733 2.2905ZM43.7257 2.37079L44.1426 3.27976L44.7564 2.99826L44.3395 2.08929L43.9227 1.18033L43.3089 1.46182L43.7257 2.37079ZM44.3395 2.08929L44.7564 2.99826L45.3702 2.71677L44.9533 1.8078L44.5365 0.898829L43.9227 1.18033L44.3395 2.08929ZM44.9533 1.8078L45.3702 2.71677C45.3817 2.71147 45.3877 2.70992 45.3883 2.70975C45.3888 2.70963 45.3858 2.71039 45.3804 2.71066C45.3749 2.71094 45.3699 2.71058 45.3664 2.71006C45.3632 2.70955 45.364 2.70932 45.3697 2.71134L45.7057 1.76949L46.0418 0.827649C45.5356 0.647052 45.0148 0.679456 44.5365 0.898829L44.9533 1.8078ZM45.7057 1.76949L45.3697 2.71134L45.9835 2.93034L46.3195 1.9885L46.6556 1.04665L46.0418 0.827649L45.7057 1.76949ZM46.3195 1.9885L45.9835 2.93034L46.5973 3.14934L46.9333 2.2075L47.2694 1.26565L46.6556 1.04665L46.3195 1.9885ZM46.9333 2.2075L46.5973 3.14934C47.0883 3.32454 47.5967 3.30563 48.072 3.10653L47.6857 2.18416L47.2994 1.26179C47.2876 1.26675 47.2806 1.26853 47.2782 1.26908C47.276 1.26915 47.2759 1.2696 47.2782 1.26908C47.2805 1.26901 47.2823 1.26941 47.2822 1.26938C47.282 1.26934 47.2779 1.26868 47.2694 1.26565L46.9333 2.2075ZM47.6857 2.18416L48.072 3.10653L48.6858 2.84946L48.2995 1.92709L47.9132 1.00472L47.2994 1.26179L47.6857 2.18416ZM48.2995 1.92709L48.6858 2.84946L49.2996 2.59239L48.9133 1.67002L48.527 0.747649L47.9132 1.00472L48.2995 1.92709ZM48.9133 1.67002L49.2996 2.59239C49.2986 2.59283 49.2901 2.5962 49.2751 2.59885C49.2598 2.60155 49.242 2.60272 49.2235 2.6015C49.1837 2.59887 49.168 2.58732 49.1831 2.59559L49.6657 1.71979L50.1484 0.843989C49.6467 0.567477 49.0763 0.517609 48.527 0.747649L48.9133 1.67002ZM49.6657 1.71979L49.1831 2.59559L49.7969 2.93387L50.2795 2.05807L50.7622 1.18227L50.1484 0.843989L49.6657 1.71979ZM50.2795 2.05807L49.7969 2.93387L50.4107 3.27215L50.8933 2.39635L51.376 1.52054L50.7622 1.18227L50.2795 2.05807ZM50.8933 2.39635L50.4107 3.27215C50.9032 3.54359 51.4642 3.60154 52.0112 3.38682L51.6457 2.45599L51.2803 1.52515C51.2814 1.52472 51.2892 1.52183 51.3029 1.51969C51.3168 1.51751 51.3325 1.51678 51.3485 1.51805C51.3831 1.52079 51.3942 1.53055 51.376 1.52054L50.8933 2.39635ZM51.6457 2.45599L52.0112 3.38682L52.625 3.14585L52.2595 2.21501L51.8941 1.28418L51.2803 1.52515L51.6457 2.45599ZM52.2595 2.21501L52.625 3.14585L53.2388 2.90488L52.8733 1.97404L52.5079 1.04321L51.8941 1.28418L52.2595 2.21501ZM52.8733 1.97404L53.2388 2.90488C53.5054 2.80021 53.7715 2.6879 54.0371 2.56801L53.6257 1.65655L53.2143 0.745092C52.9784 0.851596 52.7429 0.950948 52.5079 1.04321L52.8733 1.97404ZM53.6257 1.65655L54.0371 2.56801L54.6509 2.29097L54.2395 1.37951L53.8281 0.468049L53.2143 0.745092L53.6257 1.65655ZM54.2395 1.37951L54.6509 2.29097L55.2647 2.01392L54.8533 1.10247L54.4419 0.191007L53.8281 0.468049L54.2395 1.37951ZM54.8533 1.10247L55.2647 2.01392C55.2571 2.01738 55.2395 2.02418 55.2131 2.02877C55.1863 2.03345 55.1568 2.03469 55.1273 2.03166C55.0655 2.02531 55.04 2.0046 55.0567 2.01559L55.6057 1.17977L56.1547 0.343954C55.6488 0.0115989 55.037 -0.0775751 54.4419 0.191007L54.8533 1.10247ZM55.6057 1.17977L55.0567 2.01559L55.6705 2.41877L56.2195 1.58295L56.7685 0.747129L56.1547 0.343954L55.6057 1.17977ZM56.2195 1.58295L55.6705 2.41877L56.2843 2.82194L56.8333 1.98612L57.3823 1.1503L56.7685 0.747129L56.2195 1.58295ZM56.8333 1.98612L56.2843 2.82194C56.5386 2.98897 56.849 3.10838 57.2019 3.11109C57.5553 3.1138 57.8682 2.9988 58.1257 2.8336L57.5857 1.9919L57.0458 1.1502C57.0525 1.14589 57.1146 1.11036 57.2172 1.11115C57.3193 1.11193 57.3788 1.14801 57.3823 1.1503L56.8333 1.98612ZM57.5857 1.9919L58.1257 2.8336L58.7395 2.43984L58.1995 1.59815L57.6596 0.756447L57.0458 1.1502L57.5857 1.9919ZM58.1995 1.59815L58.7395 2.43984L59.3533 2.04609L58.8133 1.20439L58.2734 0.362695L57.6596 0.756447L58.1995 1.59815ZM58.8133 1.20439L59.3533 2.04609C59.3833 2.02682 59.3815 2.03484 59.351 2.03984C59.3363 2.04224 59.3196 2.04312 59.3025 2.04183C59.2855 2.04055 59.2729 2.03749 59.2659 2.03529L59.5657 1.08131L59.8656 0.127326C59.2923 -0.0528783 58.7363 0.0657351 58.2734 0.362695L58.8133 1.20439ZM59.5657 1.08131L59.2659 2.03529L59.8797 2.22822L60.1795 1.27424L60.4794 0.320257L59.8656 0.127326L59.5657 1.08131ZM60.1795 1.27424L59.8797 2.22822L60.4935 2.42116L60.7933 1.46717L61.0932 0.513188L60.4794 0.320257L60.1795 1.27424ZM60.7933 1.46717L60.4935 2.42116C60.9445 2.56293 61.4093 2.55922 61.8578 2.41193L61.5457 1.46186L61.2337 0.511792C61.1806 0.529243 61.1437 0.529078 61.0932 0.513188L60.7933 1.46717ZM61.5457 1.46186L61.8578 2.41193L62.4716 2.21033L62.1595 1.26026L61.8475 0.310193L61.2337 0.511792L61.5457 1.46186ZM62.1595 1.26026L62.4716 2.21033L63.0854 2.00873L62.7733 1.05866L62.4613 0.108593L61.8475 0.310193L62.1595 1.26026ZM62.7733 1.05866L63.0854 2.00873C63.1216 1.99684 63.1429 1.99598 63.1859 2.01152L63.5257 1.07104L63.8656 0.130551C63.407 -0.0351588 62.9267 -0.0442641 62.4613 0.108593L62.7733 1.05866ZM63.5257 1.07104L63.1859 2.01152L63.7997 2.23331L64.1395 1.29283L64.4794 0.352341L63.8656 0.130551L63.5257 1.07104ZM64.1395 1.29283L63.7997 2.23331L64.4135 2.4551L64.7533 1.51462L65.0932 0.574131L64.4794 0.352341L64.1395 1.29283ZM64.7533 1.51462L64.4135 2.4551C64.7898 2.59107 65.1828 2.64944 65.5837 2.61808L65.5057 1.62112L65.4277 0.624169C65.3271 0.632044 65.2185 0.619408 65.0932 0.574131L64.7533 1.51462ZM65.5057 1.62112L65.5837 2.61808L66.1975 2.57006L66.1195 1.57311L66.0415 0.576154L65.4277 0.624169L65.5057 1.62112ZM66.1195 1.57311L66.1975 2.57006L66.8113 2.52205L66.7333 1.52509L66.6553 0.528138L66.0415 0.576154L66.1195 1.57311ZM66.7333 1.52509L66.8113 2.52205C67.0485 2.50349 67.2857 2.48982 67.5228 2.48104L67.4857 1.48173L67.4487 0.482412C67.1842 0.492211 66.9198 0.507454 66.6553 0.528138L66.7333 1.52509ZM67.4857 1.48173L67.5228 2.48104L68.1366 2.4583L68.0995 1.45899L68.0625 0.459673L67.4487 0.482412L67.4857 1.48173ZM68.0995 1.45899L68.1366 2.4583L68.7504 2.43556L68.7133 1.43625L68.6763 0.436935L68.0625 0.459673L68.0995 1.45899ZM68.7133 1.43625L68.7504 2.43556C68.8871 2.4305 69.0287 2.44788 69.1793 2.49289L69.4657 1.5348L69.7522 0.576715C69.4011 0.471732 69.0411 0.42342 68.6763 0.436935L68.7133 1.43625ZM69.4657 1.5348L69.1793 2.49289L69.7931 2.67642L70.0795 1.71833L70.366 0.760248L69.7522 0.576715L69.4657 1.5348ZM70.0795 1.71833L69.7931 2.67642L70.4069 2.85996L70.6933 1.90187L70.9798 0.943782L70.366 0.760248L70.0795 1.71833ZM70.6933 1.90187L70.4069 2.85996C70.7753 2.97013 71.1545 3.01077 71.5377 2.97539L71.4457 1.97963L71.3538 0.983861C71.2354 0.994792 71.113 0.983593 70.9798 0.943782L70.6933 1.90187ZM71.4457 1.97963L71.5377 2.97539L72.1515 2.91872L72.0595 1.92296L71.9676 0.927194L71.3538 0.983861L71.4457 1.97963ZM72.0595 1.92296L72.1515 2.91872L72.7653 2.86206L72.6733 1.86629L72.5814 0.870527L71.9676 0.927194L72.0595 1.92296ZM72.6733 1.86629L72.7653 2.86206C72.9511 2.8449 73.1366 2.84593 73.3227 2.8652L73.4257 1.87052L73.5287 0.875843C73.2132 0.843166 72.8971 0.841378 72.5814 0.870527L72.6733 1.86629ZM73.4257 1.87052L73.3227 2.8652L73.9365 2.92877L74.0395 1.93409L74.1425 0.939412L73.5287 0.875843L73.4257 1.87052ZM74.0395 1.93409L73.9365 2.92877L74.5503 2.99234L74.6533 1.99766L74.7563 1.00298L74.1425 0.939412L74.0395 1.93409ZM74.6533 1.99766L74.5503 2.99234C75.0078 3.03972 75.4462 2.94609 75.8468 2.74926L75.4057 1.85176L74.9647 0.954264C74.8637 1.00391 74.8004 1.00754 74.7563 1.00298L74.6533 1.99766ZM75.4057 1.85176L75.8468 2.74926L76.4606 2.44764L76.0195 1.55014L75.5785 0.652649L74.9647 0.954264L75.4057 1.85176ZM76.0195 1.55014L76.4606 2.44764L77.0743 2.14602L76.6333 1.24853L76.1923 0.351033L75.5785 0.652649L76.0195 1.55014ZM76.6333 1.24853L77.0743 2.14602C77.0625 2.15186 77.0167 2.16931 76.9508 2.16544C76.8874 2.1617 76.8562 2.14117 76.8656 2.14686L77.3857 1.29278L77.9059 0.438709C77.3811 0.119076 76.7682 0.0680416 76.1923 0.351033L76.6333 1.24853ZM77.3857 1.29278L76.8656 2.14686L77.4794 2.52068L77.9995 1.6666L78.5197 0.81253L77.9059 0.438709L77.3857 1.29278ZM77.9995 1.6666L77.4794 2.52068L78.0932 2.8945L78.6133 2.04042L79.1335 1.18635L78.5197 0.81253L77.9995 1.6666ZM78.6133 2.04042L78.0932 2.8945C78.5295 3.16023 79.0406 3.28195 79.5791 3.16437L79.3657 2.18739L79.1524 1.21041C79.1544 1.20996 79.1594 1.20915 79.1661 1.20908C79.1729 1.209 79.1783 1.20969 79.1812 1.21027C79.1879 1.21158 79.1727 1.21021 79.1335 1.18635L78.6133 2.04042ZM79.3657 2.18739L79.5791 3.16437L80.1929 3.03033L79.9795 2.05335L79.7662 1.07638L79.1524 1.21041L79.3657 2.18739ZM79.9795 2.05335L80.1929 3.03033L80.8067 2.89629L80.5933 1.91932L80.38 0.94234L79.7662 1.07638L79.9795 2.05335ZM80.5933 1.91932L80.8067 2.89629C80.8663 2.88326 80.7746 2.9169 80.6152 2.871C80.5223 2.84426 80.4033 2.78911 80.2929 2.68393C80.181 2.57727 80.1147 2.45408 80.0806 2.34507L81.035 2.04647L81.9894 1.74787C81.8616 1.33953 81.5464 1.05786 81.1685 0.949061C80.8618 0.860774 80.5711 0.900602 80.38 0.94234L80.5933 1.91932ZM81.035 2.04647L80.0806 2.34507L80.1875 2.68658L81.1419 2.38798L82.0962 2.08938L81.9894 1.74787L81.035 2.04647ZM81.1419 2.38798L80.1875 2.68658L80.2943 3.02808L81.2487 2.72948L82.2031 2.43088L82.0962 2.08938L81.1419 2.38798ZM81.2487 2.72948L80.2943 3.02808C80.3088 3.07448 80.3353 3.19353 80.3586 3.41828L81.3533 3.31499L82.3479 3.2117C82.3192 2.93485 82.2759 2.66356 82.2031 2.43088L81.2487 2.72948ZM81.3533 3.31499L80.3586 3.41828L80.4223 4.03208L81.417 3.92879L82.4117 3.8255L82.3479 3.2117L81.3533 3.31499ZM81.417 3.92879L80.4223 4.03208L80.4861 4.64588L81.4807 4.54259L82.4754 4.4393L82.4117 3.8255L81.417 3.92879ZM81.4807 4.54259L80.4861 4.64588C80.5275 5.04492 80.6555 5.4225 80.8475 5.77419L81.7252 5.29499L82.6029 4.81579C82.5211 4.66588 82.486 4.54186 82.4754 4.4393L81.4807 4.54259ZM81.7252 5.29499L80.8475 5.77419L81.1826 6.38799L82.0603 5.90879L82.938 5.42959L82.6029 4.81579L81.7252 5.29499ZM82.0603 5.90879L81.1826 6.38799L81.5177 7.00179L82.3954 6.52259L83.2731 6.04339L82.938 5.42959L82.0603 5.90879ZM82.3954 6.52259L81.5177 7.00179C81.5797 7.11537 81.5875 7.18712 81.5855 7.23197L82.5846 7.27499L83.5837 7.31801C83.6034 6.86126 83.485 6.43141 83.2731 6.04339L82.3954 6.52259ZM82.5846 7.27499L81.5855 7.23197L81.5591 7.84577L82.5582 7.88879L83.5573 7.93181L83.5837 7.31801L82.5846 7.27499ZM82.5582 7.88879L81.5591 7.84577L81.5327 8.45957L82.5318 8.50259L83.5308 8.54561L83.5573 7.93181L82.5582 7.88879ZM82.5318 8.50259L81.5327 8.45957C81.5211 8.72757 81.5165 8.9956 81.5189 9.26364L82.5188 9.25499L83.5188 9.24633C83.5168 9.01278 83.5208 8.77921 83.5308 8.54561L82.5318 8.50259ZM82.5188 9.25499L81.5189 9.26364L81.5242 9.87745L82.5241 9.86879L83.5241 9.86013L83.5188 9.24633L82.5188 9.25499ZM82.5241 9.86879L81.5242 9.87745L81.5295 10.4912L82.5294 10.4826L83.5294 10.4739L83.5241 9.86013L82.5241 9.86879ZM82.5294 10.4826L81.5295 10.4912C81.5318 10.7534 81.5385 11.0155 81.5497 11.2776L82.5488 11.235L83.5478 11.1924C83.5376 10.9529 83.5315 10.7134 83.5294 10.4739L82.5294 10.4826ZM82.5488 11.235L81.5497 11.2776L81.5758 11.8914L82.5749 11.8488L83.574 11.8062L83.5478 11.1924L82.5488 11.235ZM82.5749 11.8488L81.5758 11.8914L81.602 12.5052L82.6011 12.4626L83.6002 12.42L83.574 11.8062L82.5749 11.8488ZM82.6011 12.4626L81.602 12.5052C81.6011 12.4829 81.6062 12.4709 81.6039 12.4768C81.6003 12.4861 81.5845 12.5213 81.5354 12.5813L82.309 13.215L83.0826 13.8487C83.3971 13.4647 83.6241 12.981 83.6002 12.42L82.6011 12.4626ZM82.309 13.215L81.5354 12.5813L81.0326 13.1951L81.8062 13.8288L82.5797 14.4625L83.0826 13.8487L82.309 13.215ZM81.8062 13.8288L81.0326 13.1951L80.5298 13.8089L81.3033 14.4426L82.0769 15.0763L82.5797 14.4625L81.8062 13.8288ZM81.3033 14.4426L80.5298 13.8089C80.3351 14.0465 80.168 14.3587 80.1373 14.7383C80.106 15.1264 80.2266 15.4701 80.4071 15.7445L81.2426 15.195L82.0781 14.6455C82.0936 14.6691 82.1419 14.762 82.1308 14.8993C82.1204 15.0281 82.0661 15.0895 82.0769 15.0763L81.3033 14.4426ZM81.2426 15.195L80.4071 15.7445L80.8108 16.3583L81.6463 15.8088L82.4818 15.2593L82.0781 14.6455L81.2426 15.195ZM81.6463 15.8088L80.8108 16.3583L81.2144 16.9721L82.0499 16.4226L82.8854 15.8731L82.4818 15.2593L81.6463 15.8088ZM82.0499 16.4226L81.2144 16.9721C81.215 16.9729 81.1818 16.9204 81.1792 16.8263C81.1766 16.7304 81.2078 16.6694 81.2142 16.6589L82.0707 17.175L82.9272 17.6911C83.0846 17.4298 83.188 17.118 83.1785 16.7712C83.169 16.4263 83.0499 16.1231 82.8854 15.8731L82.0499 16.4226ZM82.0707 17.175L81.2142 16.6589L80.8443 17.2727L81.7008 17.7888L82.5573 18.3049L82.9272 17.6911L82.0707 17.175ZM81.7008 17.7888L80.8443 17.2727L80.4744 17.8865L81.331 18.4026L82.1875 18.9187L82.5573 18.3049L81.7008 17.7888ZM81.331 18.4026L80.4744 17.8865C80.1771 18.3799 80.0989 18.9587 80.3273 19.5275L81.2553 19.155L82.1833 18.7824C82.1852 18.787 82.1894 18.7993 82.1923 18.8181C82.1951 18.8373 82.1958 18.8582 82.1937 18.8788C82.1893 18.9227 82.176 18.9378 82.1875 18.9187L81.331 18.4026ZM81.2553 19.155L80.3273 19.5275L80.5737 20.1413L81.5017 19.7688L82.4297 19.3962L82.1833 18.7824L81.2553 19.155ZM81.5017 19.7688L80.5737 20.1413L80.8201 20.7551L81.7481 20.3826L82.6761 20.01L82.4297 19.3962L81.5017 19.7688ZM81.7481 20.3826L80.8201 20.7551C80.8776 20.8984 80.9007 21.0251 80.9014 21.1408L81.9013 21.135L82.9013 21.1292C82.8991 20.7432 82.82 20.3684 82.6761 20.01L81.7481 20.3826ZM81.9013 21.135L80.9014 21.1408L80.9049 21.7546L81.9049 21.7488L82.9049 21.743L82.9013 21.1292L81.9013 21.135ZM81.9049 21.7488L80.9049 21.7546L80.9085 22.3684L81.9085 22.3626L82.9084 22.3568L82.9049 21.743L81.9049 21.7488ZM81.9085 22.3626L80.9085 22.3684C80.9094 22.5325 80.8894 22.6994 80.8462 22.8712L81.8161 23.115L82.7859 23.3588C82.8688 23.029 82.9104 22.6943 82.9084 22.3568L81.9085 22.3626ZM81.8161 23.115L80.8462 22.8712L80.6919 23.485L81.6617 23.7288L82.6316 23.9726L82.7859 23.3588L81.8161 23.115ZM81.6617 23.7288L80.6919 23.485L80.5376 24.0988L81.5074 24.3426L82.4772 24.5864L82.6316 23.9726L81.6617 23.7288ZM81.5074 24.3426L80.5376 24.0988C80.4243 24.5494 80.4524 25.0036 80.609 25.4357L81.5491 25.095L82.4893 24.7543C82.4641 24.6848 82.4644 24.6374 82.4772 24.5864L81.5074 24.3426ZM81.5491 25.095L80.609 25.4357L80.8314 26.0495L81.7716 25.7088L82.7117 25.3681L82.4893 24.7543L81.5491 25.095ZM81.7716 25.7088L80.8314 26.0495L81.0538 26.6633L81.994 26.3226L82.9342 25.9819L82.7117 25.3681L81.7716 25.7088ZM81.994 26.3226L81.0538 26.6633C81.0772 26.7278 81.0765 26.77 81.0638 26.8178L82.0301 27.075L82.9965 27.3322C83.1173 26.8783 83.0925 26.419 82.9342 25.9819L81.994 26.3226ZM82.0301 27.075L81.0638 26.8178L80.9004 27.4316L81.8668 27.6888L82.8331 27.946L82.9965 27.3322L82.0301 27.075ZM81.8668 27.6888L80.9004 27.4316L80.737 28.0454L81.7034 28.3026L82.6697 28.5598L82.8331 27.946L81.8668 27.6888ZM81.7034 28.3026L80.737 28.0454C80.6699 28.2974 80.6034 28.5495 80.5373 28.8016L81.5047 29.055L82.472 29.3084C82.5374 29.0589 82.6033 28.8093 82.6697 28.5598L81.7034 28.3026ZM81.5047 29.055L80.5373 28.8016L80.3765 29.4154L81.3439 29.6688L82.3113 29.9222L82.472 29.3084L81.5047 29.055ZM81.3439 29.6688L80.3765 29.4154L80.2158 30.0292L81.1831 30.2826L82.1505 30.536L82.3113 29.9222L81.3439 29.6688ZM81.1831 30.2826L80.2158 30.0292C80.1313 30.3516 80.0837 30.6785 80.0749 31.0084L81.0745 31.035L82.0742 31.0616C82.0788 30.8899 82.1035 30.7152 82.1505 30.536L81.1831 30.2826ZM81.0745 31.035L80.0749 31.0084L80.0585 31.6222L81.0582 31.6488L82.0578 31.6754L82.0742 31.0616L81.0745 31.035ZM81.0582 31.6488L80.0585 31.6222L80.0422 32.236L81.0418 32.2626L82.0415 32.2892L82.0578 31.6754L81.0582 31.6488ZM81.0418 32.2626L80.0422 32.236C80.031 32.654 80.1228 33.0555 80.2947 33.4311L81.204 33.015L82.1133 32.5989C82.0556 32.4728 82.0392 32.3728 82.0415 32.2892L81.0418 32.2626ZM81.204 33.015L80.2947 33.4311L80.5755 34.0449L81.4849 33.6288L82.3942 33.2127L82.1133 32.5989L81.204 33.015ZM81.4849 33.6288L80.5755 34.0449L80.8564 34.6587L81.7657 34.2426L82.6751 33.8265L82.3942 33.2127L81.4849 33.6288ZM81.7657 34.2426L80.8564 34.6587C80.859 34.6643 80.8578 34.6629 80.856 34.6552C80.8541 34.6472 80.8525 34.6356 80.8524 34.6219C80.8524 34.6082 80.854 34.5965 80.8558 34.5882C80.8576 34.5801 80.859 34.5784 80.8567 34.5836L81.7681 34.995L82.6795 35.4064C82.9119 34.8917 82.9097 34.3392 82.6751 33.8265L81.7657 34.2426ZM81.7681 34.995L80.8567 34.5836L80.5796 35.1974L81.491 35.6088L82.4025 36.0202L82.6795 35.4064L81.7681 34.995ZM81.491 35.6088L80.5796 35.1974L80.3025 35.8112L81.2139 36.2226L82.1254 36.634L82.4025 36.0202L81.491 35.6088ZM81.2139 36.2226L80.3025 35.8112C80.0379 36.3973 80.1164 37.0035 80.4395 37.5116L81.2833 36.975L82.1272 36.4384C82.1174 36.423 82.1367 36.448 82.1422 36.5069C82.1479 36.5694 82.1332 36.6168 82.1254 36.634L81.2139 36.2226ZM81.2833 36.975L80.4395 37.5116L80.8298 38.1254L81.6736 37.5888L82.5175 37.0522L82.1272 36.4384L81.2833 36.975ZM81.6736 37.5888L80.8298 38.1254L81.2201 38.7392L82.0639 38.2026L82.9078 37.666L82.5175 37.0522L81.6736 37.5888ZM82.0639 38.2026L81.2201 38.7392C81.3063 38.8747 81.3272 38.9666 81.331 39.0228L82.3287 38.955L83.3264 38.8872C83.2962 38.4418 83.1405 38.032 82.9078 37.666L82.0639 38.2026ZM82.3287 38.955L81.331 39.0228L81.3727 39.6366L82.3704 39.5688L83.3681 39.501L83.3264 38.8872L82.3287 38.955ZM82.3704 39.5688L81.3727 39.6366L81.4144 40.2504L82.4121 40.1826L83.4098 40.1148L83.3681 39.501L82.3704 39.5688ZM82.4121 40.1826L81.4144 40.2504C81.4321 40.51 81.4532 40.7695 81.4777 41.0291L82.4733 40.935L83.4688 40.8409C83.4459 40.5988 83.4263 40.3568 83.4098 40.1148L82.4121 40.1826ZM82.4733 40.935L81.4777 41.0291L81.5357 41.6429L82.5313 41.5488L83.5268 41.4547L83.4688 40.8409L82.4733 40.935ZM82.5313 41.5488L81.5357 41.6429L81.5937 42.2567L82.5893 42.1626L83.5848 42.0685L83.5268 41.4547L82.5313 41.5488ZM82.5893 42.1626L81.5937 42.2567C81.6023 42.3475 81.5917 42.4467 81.5475 42.5649L82.4842 42.915L83.421 43.265C83.5642 42.8817 83.6236 42.4793 83.5848 42.0685L82.5893 42.1626ZM82.4842 42.915L81.5475 42.5649L81.3181 43.1787L82.2548 43.5288L83.1916 43.8788L83.421 43.265L82.4842 42.915ZM82.2548 43.5288L81.3181 43.1787L81.0887 43.7925L82.0255 44.1426L82.9622 44.4926L83.1916 43.8788L82.2548 43.5288ZM82.0255 44.1426L81.0887 43.7925C80.9418 44.1856 80.8871 44.5992 80.9401 45.02L81.9323 44.895L82.9244 44.77C82.9143 44.6892 82.9217 44.6012 82.9622 44.4926L82.0255 44.1426ZM81.9323 44.895L80.9401 45.02L81.0174 45.6338L82.0096 45.5088L83.0017 45.3838L82.9244 44.77L81.9323 44.895ZM82.0096 45.5088L81.0174 45.6338L81.0947 46.2476L82.0869 46.1226L83.0791 45.9976L83.0017 45.3838L82.0096 45.5088ZM82.0869 46.1226L81.0947 46.2476C81.1222 46.4657 81.1387 46.6833 81.1443 46.9007L82.1439 46.875L83.1436 46.8493C83.1363 46.5651 83.1148 46.2811 83.0791 45.9976L82.0869 46.1226ZM82.1439 46.875L81.1443 46.9007L81.16 47.5145L82.1597 47.4888L83.1594 47.4631L83.1436 46.8493L82.1439 46.875ZM82.1597 47.4888L81.16 47.5145L81.1758 48.1283L82.1755 48.1026L83.1752 48.0769L83.1594 47.4631L82.1597 47.4888ZM82.1755 48.1026L81.1758 48.1283C81.1789 48.2471 81.1597 48.3742 81.1088 48.5154L82.0493 48.855L82.9899 49.1945C83.12 48.8342 83.185 48.4597 83.1752 48.0769L82.1755 48.1026ZM82.0493 48.855L81.1088 48.5154L80.8872 49.1292L81.8278 49.4688L82.7684 49.8083L82.9899 49.1945L82.0493 48.855ZM81.8278 49.4688L80.8872 49.1292L80.6656 49.743L81.6062 50.0826L82.5468 50.4221L82.7684 49.8083L81.8278 49.4688ZM81.6062 50.0826L80.6656 49.743C80.556 50.0467 80.4737 50.3546 80.4203 50.6662L81.406 50.835L82.3916 51.0037C82.4242 50.8138 82.4753 50.6201 82.5468 50.4221L81.6062 50.0826ZM81.406 50.835L80.4203 50.6662L80.3152 51.28L81.3009 51.4488L82.2866 51.6175L82.3916 51.0037L81.406 50.835ZM81.3009 51.4488L80.3152 51.28L80.2101 51.8938L81.1958 52.0626L82.1815 52.2313L82.2866 51.6175L81.3009 51.4488ZM81.1958 52.0626L80.2101 51.8938C80.1503 52.2433 80.1434 52.5953 80.19 52.9465L81.1813 52.815L82.1726 52.6835C82.1527 52.5331 82.1554 52.3835 82.1815 52.2313L81.1958 52.0626ZM81.1813 52.815L80.19 52.9465L80.2714 53.5603L81.2627 53.4288L82.254 53.2973L82.1726 52.6835L81.1813 52.815ZM81.2627 53.4288L80.2714 53.5603L80.3528 54.1741L81.3441 54.0426L82.3354 53.9111L82.254 53.2973L81.2627 53.4288ZM81.3441 54.0426L80.3528 54.1741C80.3902 54.4559 80.4409 54.737 80.5049 55.0174L81.4798 54.795L82.4548 54.5726C82.4043 54.3513 82.3646 54.1309 82.3354 53.9111L81.3441 54.0426ZM81.4798 54.795L80.5049 55.0174L80.6449 55.6312L81.6198 55.4088L82.5948 55.1864L82.4548 54.5726L81.4798 54.795ZM81.6198 55.4088L80.6449 55.6312L80.7849 56.245L81.7598 56.0226L82.7348 55.8002L82.5948 55.1864L81.6198 55.4088ZM81.7598 56.0226L80.7849 56.245C80.8284 56.4361 80.8531 56.6245 80.8598 56.811L81.8592 56.775L82.8585 56.7389C82.8472 56.4239 82.8056 56.1107 82.7348 55.8002L81.7598 56.0226ZM81.8592 56.775L80.8598 56.811L80.882 57.4248L81.8813 57.3888L82.8807 57.3527L82.8585 56.7389L81.8592 56.775ZM81.8813 57.3888L80.882 57.4248L80.9041 58.0386L81.9035 58.0026L82.9028 57.9665L82.8807 57.3527L81.8813 57.3888ZM81.9035 58.0026L80.9041 58.0386C80.9149 58.3377 80.9473 58.6359 81.0009 58.9328L81.985 58.755L82.9691 58.5772C82.9321 58.3725 82.9101 58.1691 82.9028 57.9665L81.9035 58.0026ZM81.985 58.755L81.0009 58.9328L81.1118 59.5466L82.0959 59.3688L83.0799 59.191L82.9691 58.5772L81.985 58.755ZM82.0959 59.3688L81.1118 59.5466L81.2227 60.1604L82.2068 59.9826L83.1908 59.8048L83.0799 59.191L82.0959 59.3688ZM82.2068 59.9826L81.2227 60.1604C81.2342 60.2243 81.2314 60.2924 81.1973 60.3832L82.1334 60.735L83.0695 61.0867C83.2238 60.676 83.2699 60.2425 83.1908 59.8048L82.2068 59.9826ZM82.1334 60.735L81.1973 60.3832L80.9666 60.997L81.9027 61.3488L82.8388 61.7005L83.0695 61.0867L82.1334 60.735ZM81.9027 61.3488L80.9666 60.997L80.736 61.6108L81.6721 61.9626L82.6082 62.3143L82.8388 61.7005L81.9027 61.3488ZM81.6721 61.9626L80.736 61.6108C80.5962 61.9828 80.531 62.372 80.5531 62.7704L81.5516 62.715L82.5501 62.6595C82.5443 62.5564 82.5595 62.444 82.6082 62.3143L81.6721 61.9626ZM81.5516 62.715L80.5531 62.7704L80.5872 63.3842L81.5857 63.3288L82.5842 63.2733L82.5501 62.6595L81.5516 62.715ZM81.5857 63.3288L80.5872 63.3842L80.6213 63.998L81.6198 63.9426L82.6182 63.8871L82.5842 63.2733L81.5857 63.3288ZM81.6198 63.9426L80.6213 63.998C80.6293 64.1418 80.615 64.2887 80.5749 64.4423L81.5424 64.695L82.51 64.9477C82.6009 64.5996 82.6381 64.2449 82.6182 63.8871L81.6198 63.9426ZM81.5424 64.695L80.5749 64.4423L80.4146 65.0561L81.3821 65.3088L82.3497 65.5615L82.51 64.9477L81.5424 64.695ZM81.3821 65.3088L80.4146 65.0561L80.2543 65.6699L81.2218 65.9226L82.1893 66.1753L82.3497 65.5615L81.3821 65.3088ZM81.2218 65.9226L80.2543 65.6699C80.0949 66.2799 80.2791 66.84 80.6093 67.2774L81.4075 66.675L82.2057 66.0726C82.1753 66.0324 82.1823 66.0281 82.19 66.0592C82.1938 66.0748 82.1967 66.095 82.1965 66.1179C82.1964 66.1408 82.1932 66.1605 82.1893 66.1753L81.2218 65.9226ZM81.4075 66.675L80.6093 67.2774L81.0725 67.8912L81.8707 67.2888L82.6689 66.6864L82.2057 66.0726L81.4075 66.675ZM81.8707 67.2888L81.0725 67.8912L81.5358 68.505L82.334 67.9026L83.1321 67.3002L82.6689 66.6864L81.8707 67.2888ZM82.334 67.9026L81.5358 68.505C81.5731 68.5545 81.5778 68.5756 81.5755 68.5681C81.5743 68.5642 81.5722 68.5554 81.5712 68.5427C81.5702 68.5299 81.5708 68.5174 81.5725 68.5064L82.5614 68.655L83.5503 68.8035C83.637 68.2263 83.4422 67.711 83.1321 67.3002L82.334 67.9026ZM82.5614 68.655L81.5725 68.5064L81.4803 69.1202L82.4692 69.2688L83.4581 69.4173L83.5503 68.8035L82.5614 68.655ZM82.4692 69.2688L81.4803 69.1202L81.3881 69.734L82.377 69.8826L83.3659 70.0311L83.4581 69.4173L82.4692 69.2688ZM82.377 69.8826L81.3881 69.734C81.3564 69.9445 81.3115 70.1564 81.2528 70.3699L82.217 70.635L83.1812 70.9001C83.2605 70.6119 83.3221 70.3222 83.3659 70.0311L82.377 69.8826ZM82.217 70.635L81.2528 70.3699L81.084 70.9837L82.0483 71.2488L83.0125 71.5139L83.1812 70.9001L82.217 70.635ZM82.0483 71.2488L81.084 70.9837L80.9153 71.5975L81.8795 71.8626L82.8437 72.1277L83.0125 71.5139L82.0483 71.2488ZM81.8795 71.8626L80.9153 71.5975C80.7917 72.0471 80.8097 72.5041 80.9609 72.9416L81.9061 72.615L82.8512 72.2884C82.8291 72.2243 82.8294 72.1797 82.8437 72.1277L81.8795 71.8626ZM81.9061 72.615L80.9609 72.9416L81.173 73.5554L82.1182 73.2288L83.0633 72.9022L82.8512 72.2884L81.9061 72.615ZM82.1182 73.2288L81.173 73.5554L81.3851 74.1692L82.3303 73.8426L83.2754 73.516L83.0633 72.9022L82.1182 73.2288ZM82.3303 73.8426L81.3851 74.1692C81.3857 74.1735 81.3867 74.1737 81.3851 74.1692C81.3845 74.1647 81.3847 74.159 81.3851 74.153C81.3854 74.1471 81.3863 74.1441 81.3861 74.1448C81.3859 74.1456 81.3841 74.152 81.3783 74.1642L82.2807 74.595L83.1832 75.0258C83.4101 74.5504 83.4523 74.0278 83.2754 73.516L82.3303 73.8426ZM82.2807 74.595L81.3783 74.1642L81.0853 74.778L81.9877 75.2088L82.8902 75.6396L83.1832 75.0258L82.2807 74.595ZM81.9877 75.2088L81.0853 74.778L80.7923 75.3918L81.6947 75.8226L82.5972 76.2534L82.8902 75.6396L81.9877 75.2088ZM81.6947 75.8226L80.7923 75.3918C80.6229 75.7466 80.5179 76.1228 80.4945 76.5153L81.4927 76.575L82.4909 76.6347C82.4974 76.5256 82.5271 76.4002 82.5972 76.2534L81.6947 75.8226ZM81.4927 76.575L80.4945 76.5153L80.4578 77.1291L81.456 77.1888L82.4542 77.2485L82.4909 76.6347L81.4927 76.575ZM81.456 77.1888L80.4578 77.1291L80.4211 77.7429L81.4193 77.8026L82.4175 77.8623L82.4542 77.2485L81.456 77.1888ZM81.4193 77.8026L80.4211 77.7429C80.3993 78.1078 80.4396 78.469 80.5376 78.8223L81.5012 78.555L82.4648 78.2877C82.4236 78.1393 82.4093 77.999 82.4175 77.8623L81.4193 77.8026ZM81.5012 78.555L80.5376 78.8223L80.7078 79.4361L81.6715 79.1688L82.6351 78.9015L82.4648 78.2877L81.5012 78.555ZM81.6715 79.1688L80.7078 79.4361L80.8781 80.0499L81.8417 79.7826L82.8053 79.5153L82.6351 78.9015L81.6715 79.1688ZM81.8417 79.7826L80.8781 80.0499C80.8953 80.1116 80.9059 80.2129 80.8671 80.3772L81.8403 80.6069L82.8136 80.8366C82.9158 80.4034 82.9274 79.9551 82.8053 79.5153L81.8417 79.7826ZM81.8403 80.6069L80.8671 80.3772L80.6945 81.1083L81.6678 81.338L82.6411 81.5677L82.8136 80.8366L81.8403 80.6069ZM81.6678 81.338L80.6945 81.1083L80.522 81.8394L81.4953 82.0691L82.4685 82.2988L82.6411 81.5677L81.6678 81.338ZM81.4953 82.0691L80.522 81.8394C80.5143 81.8722 80.5333 81.752 80.6768 81.6308C80.8469 81.4872 81.0341 81.4724 81.1221 81.482L81.0133 82.4761L80.9045 83.4701C81.2434 83.5072 81.6363 83.4383 81.967 83.159C82.2711 82.9022 82.4058 82.5648 82.4685 82.2988L81.4953 82.0691ZM81.0133 82.4761L81.1221 81.482L80.5083 81.4148L80.3995 82.4089L80.2907 83.4029L80.9045 83.4701L81.0133 82.4761ZM80.3995 82.4089L80.5083 81.4148L79.8945 81.3476L79.7857 82.3417L79.6769 83.3357L80.2907 83.4029L80.3995 82.4089ZM79.7857 82.3417L79.8945 81.3476C79.7054 81.3269 79.5134 81.2882 79.3179 81.2302L79.0333 82.1888L78.7488 83.1475C79.0549 83.2383 79.3644 83.3015 79.6769 83.3357L79.7857 82.3417ZM79.0333 82.1888L79.3179 81.2302L78.7041 81.048L78.4195 82.0066L78.135 82.9653L78.7488 83.1475L79.0333 82.1888ZM78.4195 82.0066L78.7041 81.048L78.0903 80.8658L77.8057 81.8244L77.5212 82.7831L78.135 82.9653L78.4195 82.0066ZM77.8057 81.8244L78.0903 80.8658C77.659 80.7377 77.2153 80.7342 76.7818 80.8565L77.0533 81.8189L77.3249 82.7813C77.3929 82.7621 77.4509 82.7622 77.5212 82.7831L77.8057 81.8244ZM77.0533 81.8189L76.7818 80.8565L76.168 81.0297L76.4395 81.9921L76.7111 82.9545L77.3249 82.7813L77.0533 81.8189ZM76.4395 81.9921L76.168 81.0297L75.5542 81.2028L75.8257 82.1653L76.0973 83.1277L76.7111 82.9545L76.4395 81.9921ZM75.8257 82.1653L75.5542 81.2028C75.5148 81.214 75.4823 81.2154 75.4251 81.194L75.0733 82.13L74.7216 83.0661C75.166 83.2331 75.6351 83.2581 76.0973 83.1277L75.8257 82.1653ZM75.0733 82.13L75.4251 81.194L74.8113 80.9633L74.4595 81.8994L74.1078 82.8355L74.7216 83.0661L75.0733 82.13ZM74.4595 81.8994L74.8113 80.9633L74.1975 80.7326L73.8457 81.6687L73.494 82.6048L74.1078 82.8355L74.4595 81.8994ZM73.8457 81.6687L74.1975 80.7326C73.9113 80.6251 73.623 80.5352 73.3327 80.4637L73.0933 81.4346L72.854 82.4055C73.0653 82.4576 73.2786 82.5239 73.494 82.6048L73.8457 81.6687ZM73.0933 81.4346L73.3327 80.4637L72.7189 80.3124L72.4795 81.2833L72.2402 82.2542L72.854 82.4055L73.0933 81.4346ZM72.4795 81.2833L72.7189 80.3124L72.1051 80.1611L71.8657 81.132L71.6264 82.103L72.2402 82.2542L72.4795 81.2833ZM71.8657 81.132L72.1051 80.1611C71.6597 80.0513 71.2107 80.0773 70.7821 80.2278L71.1133 81.1713L71.4446 82.1149C71.5175 82.0893 71.5701 82.0891 71.6264 82.103L71.8657 81.132ZM71.1133 81.1713L70.7821 80.2278L70.1683 80.4433L70.4995 81.3868L70.8308 82.3304L71.4446 82.1149L71.1133 81.1713ZM70.4995 81.3868L70.1683 80.4433L69.5545 80.6587L69.8857 81.6023L70.217 82.5458L70.8308 82.3304L70.4995 81.3868ZM69.8857 81.6023L69.5545 80.6587C69.295 80.7498 69.0356 80.8449 68.7764 80.944L69.1333 81.8781L69.4902 82.8122C69.7326 82.7196 69.9749 82.6308 70.217 82.5458L69.8857 81.6023ZM69.1333 81.8781L68.7764 80.944L68.1626 81.1785L68.5195 82.1126L68.8764 83.0468L69.4902 82.8122L69.1333 81.8781ZM68.5195 82.1126L68.1626 81.1785L67.5488 81.413L67.9057 82.3471L68.2626 83.2813L68.8764 83.0468L68.5195 82.1126ZM67.9057 82.3471L67.5488 81.413C67.4489 81.4512 67.3717 81.4562 67.3011 81.4457L67.1533 82.4347L67.0056 83.4237C67.4366 83.4881 67.8609 83.4348 68.2626 83.2813L67.9057 82.3471ZM67.1533 82.4347L67.3011 81.4457L66.6873 81.354L66.5395 82.343L66.3918 83.332L67.0056 83.4237L67.1533 82.4347ZM66.5395 82.343L66.6873 81.354L66.0735 81.2623L65.9257 82.2513L65.778 83.2404L66.3918 83.332L66.5395 82.343ZM65.9257 82.2513L66.0735 81.2623C65.9295 81.2408 65.7735 81.1941 65.6036 81.1131L65.1733 82.0158L64.743 82.9185C65.0748 83.0766 65.4204 83.1869 65.778 83.2404L65.9257 82.2513ZM65.1733 82.0158L65.6036 81.1131L64.9898 80.8205L64.5595 81.7232L64.1292 82.6259L64.743 82.9185L65.1733 82.0158ZM64.5595 81.7232L64.9898 80.8205L64.376 80.528L63.9457 81.4307L63.5154 82.3334L64.1292 82.6259L64.5595 81.7232ZM63.9457 81.4307L64.376 80.528C63.8177 80.2618 63.2225 80.2986 62.7004 80.5945L63.1933 81.4645L63.6863 82.3345C63.695 82.3296 63.6684 82.346 63.6145 82.3485C63.559 82.351 63.5221 82.3365 63.5154 82.3334L63.9457 81.4307ZM63.1933 81.4645L62.7004 80.5945L62.0866 80.9423L62.5795 81.8123L63.0725 82.6823L63.6863 82.3345L63.1933 81.4645ZM62.5795 81.8123L62.0866 80.9423L61.4728 81.29L61.9657 82.1601L62.4587 83.0301L63.0725 82.6823L62.5795 81.8123ZM61.9657 82.1601L61.4728 81.29C61.4872 81.2819 61.5479 81.2542 61.6384 81.2586C61.726 81.2629 61.7721 81.2939 61.7668 81.2904L61.2133 82.1232L60.6598 82.9561C60.9054 83.1193 61.2022 83.2397 61.5406 83.2562C61.8819 83.273 62.1935 83.1804 62.4587 83.0301L61.9657 82.1601ZM61.2133 82.1232L61.7668 81.2904L61.153 80.8825L60.5995 81.7153L60.046 82.5482L60.6598 82.9561L61.2133 82.1232ZM60.5995 81.7153L61.153 80.8825L60.5392 80.4746L59.9857 81.3074L59.4322 82.1403L60.046 82.5482L60.5995 81.7153ZM59.9857 81.3074L60.5392 80.4746C60.1683 80.2281 59.7459 80.0629 59.2821 80.0402L59.2333 81.039L59.1845 82.0378C59.2223 82.0397 59.3016 82.0535 59.4322 82.1403L59.9857 81.3074ZM59.2333 81.039L59.2821 80.0402L58.6683 80.0102L58.6195 81.0091L58.5707 82.0079L59.1845 82.0378L59.2333 81.039ZM58.6195 81.0091L58.6683 80.0102L58.0545 79.9803L58.0057 80.9791L57.9569 81.9779L58.5707 82.0079L58.6195 81.0091ZM58.0057 80.9791L58.0545 79.9803C57.7835 79.967 57.5124 79.962 57.2413 79.9653L57.2533 80.9652L57.2654 81.9652C57.4959 81.9624 57.7264 81.9666 57.9569 81.9779L58.0057 80.9791ZM57.2533 80.9652L57.2413 79.9653L56.6275 79.9727L56.6395 80.9726L56.6516 81.9726L57.2654 81.9652L57.2533 80.9652ZM56.6395 80.9726L56.6275 79.9727L56.0137 79.9801L56.0257 80.9801L56.0378 81.98L56.6516 81.9726L56.6395 80.9726ZM56.0257 80.9801L56.0137 79.9801C55.6774 79.9842 55.3445 80.031 55.0166 80.1181L55.2733 81.0845L55.5301 82.051C55.7038 82.0049 55.8725 81.982 56.0378 81.98L56.0257 80.9801ZM55.2733 81.0845L55.0166 80.1181L54.4028 80.2811L54.6595 81.2476L54.9163 82.2141L55.5301 82.051L55.2733 81.0845ZM54.6595 81.2476L54.4028 80.2811L53.789 80.4442L54.0457 81.4107L54.3025 82.3772L54.9163 82.2141L54.6595 81.2476ZM54.0457 81.4107L53.789 80.4442C53.675 80.4745 53.5701 80.4784 53.4644 80.46L53.2933 81.4453L53.1222 82.4305C53.5182 82.4993 53.9149 82.4801 54.3025 82.3772L54.0457 81.4107ZM53.2933 81.4453L53.4644 80.46L52.8506 80.3534L52.6795 81.3387L52.5084 82.3239L53.1222 82.4305L53.2933 81.4453ZM52.6795 81.3387L52.8506 80.3534L52.2368 80.2468L52.0657 81.2321L51.8946 82.2174L52.5084 82.3239L52.6795 81.3387ZM52.0657 81.2321L52.2368 80.2468C51.9176 80.1914 51.5962 80.1697 51.274 80.1824L51.3133 81.1816L51.3527 82.1808C51.532 82.1737 51.7123 82.1857 51.8946 82.2174L52.0657 81.2321ZM51.3133 81.1816L51.274 80.1824L50.6602 80.2065L50.6995 81.2057L50.7389 82.205L51.3527 82.1808L51.3133 81.1816ZM50.6995 81.2057L50.6602 80.2065L50.0464 80.2307L50.0857 81.2299L50.1251 82.2291L50.7389 82.205L50.6995 81.2057ZM50.0857 81.2299L50.0464 80.2307C49.8191 80.2396 49.5918 80.2406 49.3646 80.2335L49.3333 81.233L49.3021 82.2325C49.5764 82.2411 49.8508 82.2399 50.1251 82.2291L50.0857 81.2299ZM49.3333 81.233L49.3646 80.2335L48.7508 80.2143L48.7195 81.2138L48.6883 82.2133L49.3021 82.2325L49.3333 81.233ZM48.7195 81.2138L48.7508 80.2143L48.137 80.1951L48.1057 81.1946L48.0745 82.1941L48.6883 82.2133L48.7195 81.2138ZM48.1057 81.1946L48.137 80.1951C47.6776 80.1807 47.2476 80.3065 46.8616 80.5246L47.3533 81.3953L47.8451 82.266C47.9606 82.2008 48.0322 82.1928 48.0745 82.1941L48.1057 81.1946ZM47.3533 81.3953L46.8616 80.5246L46.2478 80.8712L46.7395 81.742L47.2313 82.6127L47.8451 82.266L47.3533 81.3953ZM46.7395 81.742L46.2478 80.8712L45.634 81.2179L46.1257 82.0886L46.6175 82.9593L47.2313 82.6127L46.7395 81.742ZM46.1257 82.0886L45.634 81.2179C45.6095 81.2317 45.6126 81.2249 45.6389 81.2219C45.6511 81.2206 45.664 81.2206 45.6761 81.222C45.688 81.2234 45.6954 81.2256 45.6971 81.2262L45.3733 82.1724L45.0496 83.1185C45.5957 83.3054 46.1423 83.2277 46.6175 82.9593L46.1257 82.0886ZM45.3733 82.1724L45.6971 81.2262L45.0833 81.0162L44.7595 81.9623L44.4358 82.9085L45.0496 83.1185L45.3733 82.1724ZM44.7595 81.9623L45.0833 81.0162L44.4695 80.8062L44.1457 81.7523L43.822 82.6984L44.4358 82.9085L44.7595 81.9623ZM44.1457 81.7523L44.4695 80.8062C44.1851 80.7089 43.8991 80.6279 43.6114 80.5636L43.3933 81.5395L43.1752 82.5154C43.3892 82.5632 43.6047 82.6241 43.822 82.6984L44.1457 81.7523ZM43.3933 81.5395L43.6114 80.5636L42.9976 80.4264L42.7795 81.4023L42.5614 82.3782L43.1752 82.5154L43.3933 81.5395ZM42.7795 81.4023L42.9976 80.4264L42.3838 80.2892L42.1657 81.2651L41.9476 82.2411L42.5614 82.3782L42.7795 81.4023ZM42.1657 81.2651L42.3838 80.2892C42.0497 80.2145 41.7115 80.1835 41.3713 80.1978L41.4133 81.1969L41.4554 82.196C41.6168 82.1892 41.7801 82.2036 41.9476 82.2411L42.1657 81.2651ZM41.4133 81.1969L41.3713 80.1978L40.7575 80.2236L40.7995 81.2227L40.8416 82.2218L41.4554 82.196L41.4133 81.1969ZM40.7995 81.2227L40.7575 80.2236L40.1437 80.2495L40.1857 81.2486L40.2278 82.2477L40.8416 82.2218L40.7995 81.2227ZM40.1857 81.2486L40.1437 80.2495C39.7068 80.2678 39.2994 80.4043 38.9301 80.6193L39.4333 81.4835L39.9365 82.3476C40.0689 82.2705 40.1631 82.2504 40.2278 82.2477L40.1857 81.2486ZM39.4333 81.4835L38.9301 80.6193L38.3163 80.9767L38.8195 81.8409L39.3227 82.705L39.9365 82.3476L39.4333 81.4835ZM38.8195 81.8409L38.3163 80.9767L37.7025 81.3341L38.2057 82.1983L38.7089 83.0624L39.3227 82.705L38.8195 81.8409ZM38.2057 82.1983L37.7025 81.3341C37.6813 81.3465 37.691 81.3363 37.7265 81.3326C37.7431 81.3309 37.7602 81.3312 37.7759 81.3333C37.7915 81.3354 37.8013 81.3387 37.8045 81.3399L37.4533 82.2762L37.1021 83.2125C37.6599 83.4217 38.2233 83.3452 38.7089 83.0624L38.2057 82.1983ZM37.4533 82.2762L37.8045 81.3399L37.1907 81.1097L36.8395 82.046L36.4883 82.9823L37.1021 83.2125L37.4533 82.2762ZM36.8395 82.046L37.1907 81.1097L36.5769 80.8794L36.2257 81.8158L35.8745 82.7521L36.4883 82.9823L36.8395 82.046ZM36.2257 81.8158L36.5769 80.8794C36.1351 80.7137 35.6687 80.6872 35.2083 80.8138L35.4733 81.778L35.7383 82.7423C35.7795 82.731 35.8148 82.7296 35.8745 82.7521L36.2257 81.8158ZM35.4733 81.778L35.2083 80.8138L34.5945 80.9825L34.8595 81.9467L35.1245 82.911L35.7383 82.7423L35.4733 81.778ZM34.8595 81.9467L34.5945 80.9825L33.9807 81.1511L34.2457 82.1154L34.5107 83.0796L35.1245 82.911L34.8595 81.9467ZM34.2457 82.1154L33.9807 81.1511C33.8864 81.1771 33.8023 81.1784 33.7137 81.1584L33.4933 82.1338L33.273 83.1092C33.686 83.2025 34.1034 83.1916 34.5107 83.0796L34.2457 82.1154ZM33.4933 82.1338L33.7137 81.1584L33.0999 81.0197L32.8795 81.9951L32.6592 82.9706L33.273 83.1092L33.4933 82.1338ZM32.8795 81.9951L33.0999 81.0197L32.4861 80.8811L32.2657 81.8565L32.0454 82.8319L32.6592 82.9706L32.8795 81.9951ZM32.2657 81.8565L32.4861 80.8811C32.0967 80.7931 31.7016 80.7892 31.3105 80.8702L31.5133 81.8494L31.7161 82.8287C31.8267 82.8058 31.9332 82.8066 32.0454 82.8319L32.2657 81.8565ZM31.5133 81.8494L31.3105 80.8702L30.6967 80.9973L30.8995 81.9766L31.1023 82.9558L31.7161 82.8287L31.5133 81.8494ZM30.8995 81.9766L30.6967 80.9973L30.0829 81.1245L30.2857 82.1037L30.4885 83.0829L31.1023 82.9558L30.8995 81.9766ZM30.2857 82.1037L30.0829 81.1245C29.9171 81.1588 29.7549 81.1703 29.5942 81.1605L29.5333 82.1587L29.4725 83.1568C29.8133 83.1776 30.1528 83.1525 30.4885 83.0829L30.2857 82.1037ZM29.5333 82.1587L29.5942 81.1605L28.9804 81.1231L28.9195 82.1213L28.8587 83.1194L29.4725 83.1568L29.5333 82.1587ZM28.9195 82.1213L28.9804 81.1231L28.3666 81.0857L28.3057 82.0839L28.2449 83.082L28.8587 83.1194L28.9195 82.1213ZM28.3057 82.0839L28.3666 81.0857C28.0217 81.0647 27.6786 81.0922 27.3397 81.1663L27.5533 82.1432L27.767 83.1201C27.9297 83.0845 28.0881 83.0725 28.2449 83.082L28.3057 82.0839ZM27.5533 82.1432L27.3397 81.1663L26.7259 81.3005L26.9395 82.2775L27.1532 83.2544L27.767 83.1201L27.5533 82.1432ZM26.9395 82.2775L26.7259 81.3005L26.1121 81.4348L26.3257 82.4117L26.5394 83.3886L27.1532 83.2544L26.9395 82.2775ZM26.3257 82.4117L26.1121 81.4348C26.0135 81.4563 25.9194 81.4552 25.8175 81.4295L25.5733 82.3993L25.3292 83.369C25.7288 83.4696 26.1363 83.4767 26.5394 83.3886L26.3257 82.4117ZM25.5733 82.3993L25.8175 81.4295L25.2037 81.275L24.9595 82.2447L24.7154 83.2145L25.3292 83.369L25.5733 82.3993ZM24.9595 82.2447L25.2037 81.275L24.5899 81.1205L24.3457 82.0902L24.1016 83.0599L24.7154 83.2145L24.9595 82.2447ZM24.3457 82.0902L24.5899 81.1205C24.1853 81.0186 23.773 81.0145 23.3664 81.1093L23.5933 82.0832L23.8203 83.0571C23.9153 83.0349 24.0046 83.0355 24.1016 83.0599L24.3457 82.0902ZM23.5933 82.0832L23.3664 81.1093L22.7526 81.2523L22.9795 82.2262L23.2065 83.2001L23.8203 83.0571L23.5933 82.0832ZM22.9795 82.2262L22.7526 81.2523L22.1388 81.3954L22.3657 82.3693L22.5927 83.3432L23.2065 83.2001L22.9795 82.2262ZM22.3657 82.3693L22.1388 81.3954C22.1553 81.3915 22.176 81.3889 22.1991 81.3894C22.2222 81.3899 22.2416 81.3934 22.2556 81.3972C22.2833 81.4049 22.2749 81.4096 22.2309 81.375L21.6133 82.1616L20.9958 82.9481C21.4226 83.2832 21.977 83.4867 22.5927 83.3432L22.3657 82.3693ZM21.6133 82.1616L22.2309 81.375L21.6171 80.8931L20.9995 81.6796L20.382 82.4661L20.9958 82.9481L21.6133 82.1616ZM20.9995 81.6796L21.6171 80.8931L21.0033 80.4111L20.3857 81.1976L19.7682 81.9842L20.382 82.4661L20.9995 81.6796ZM20.3857 81.1976L21.0033 80.4111C20.6135 80.1051 20.1283 79.8932 19.573 79.9268L19.6333 80.925L19.6937 81.9232C19.6857 81.9236 19.6781 81.9232 19.6722 81.9223C19.6663 81.9214 19.665 81.9206 19.6688 81.922C19.6771 81.9249 19.7105 81.9389 19.7682 81.9842L20.3857 81.1976ZM19.6333 80.925L19.573 79.9268L18.9592 79.9639L19.0195 80.9621L19.0799 81.9603L19.6937 81.9232L19.6333 80.925ZM19.0195 80.9621L18.9592 79.9639L18.3454 80.001L18.4057 80.9992L18.4661 81.9974L19.0799 81.9603L19.0195 80.9621ZM18.4057 80.9992L18.3454 80.001C18.0502 80.0189 17.7559 80.0564 17.4628 80.1133L17.6533 81.0949L17.8438 82.0766C18.0524 82.0362 18.2597 82.0098 18.4661 81.9974L18.4057 80.9992ZM17.6533 81.0949L17.4628 80.1133L16.849 80.2324L17.0395 81.2141L17.23 82.1957L17.8438 82.0766L17.6533 81.0949ZM17.0395 81.2141L16.849 80.2324L16.2352 80.3515L16.4257 81.3332L16.6162 82.3148L17.23 82.1957L17.0395 81.2141ZM16.4257 81.3332L16.2352 80.3515C16.0303 80.3913 15.8267 80.4159 15.6242 80.4259L15.6733 81.4247L15.7224 82.4235C16.0215 82.4088 16.3196 82.3724 16.6162 82.3148L16.4257 81.3332ZM15.6733 81.4247L15.6242 80.4259L15.0104 80.456L15.0595 81.4548L15.1086 82.4536L15.7224 82.4235L15.6733 81.4247ZM15.0595 81.4548L15.0104 80.456L14.3966 80.4862L14.4457 81.485L14.4948 82.4838L15.1086 82.4536L15.0595 81.4548ZM14.4457 81.485L14.3966 80.4862C13.9714 80.5071 13.572 80.636 13.2062 80.8401L13.6933 81.7134L14.1805 82.5867C14.3163 82.5109 14.4185 82.4876 14.4948 82.4838L14.4457 81.485ZM13.6933 81.7134L13.2062 80.8401L12.5924 81.1825L13.0795 82.0558L13.5667 82.9291L14.1805 82.5867L13.6933 81.7134ZM13.0795 82.0558L12.5924 81.1825L11.9786 81.5249L12.4657 82.3982L12.9529 83.2715L13.5667 82.9291L13.0795 82.0558ZM12.4657 82.3982L11.9786 81.5249C11.8856 81.5767 11.845 81.5719 11.8315 81.5703L11.7133 82.5633L11.5951 83.5563C12.0833 83.6144 12.5443 83.4995 12.9529 83.2715L12.4657 82.3982ZM11.7133 82.5633L11.8315 81.5703L11.2177 81.4972L11.0995 82.4902L10.9813 83.4832L11.5951 83.5563L11.7133 82.5633ZM11.0995 82.4902L11.2177 81.4972L10.6039 81.4242L10.4857 82.4171L10.3675 83.4101L10.9813 83.4832L11.0995 82.4902ZM10.4857 82.4171L10.6039 81.4242C10.3649 81.3957 10.1257 81.3629 9.88648 81.3259L9.73333 82.3141L9.58018 83.3023C9.84254 83.3429 10.105 83.3789 10.3675 83.4101L10.4857 82.4171ZM9.73333 82.3141L9.88648 81.3259L9.27268 81.2307L9.11953 82.2189L8.96638 83.2071L9.58018 83.3023L9.73333 82.3141ZM9.11953 82.2189L9.27268 81.2307L8.65888 81.1356L8.50573 82.1238L8.35258 83.112L8.96638 83.2071L9.11953 82.2189ZM8.50573 82.1238L8.65888 81.1356C8.51919 81.114 8.36615 81.0666 8.19775 80.983L7.75333 81.8789L7.30892 82.7747C7.64211 82.94 7.99068 83.0559 8.35258 83.112L8.50573 82.1238ZM7.75333 81.8789L8.19775 80.983L7.58395 80.6785L7.13953 81.5744L6.69512 82.4702L7.30892 82.7747L7.75333 81.8789ZM7.13953 81.5744L7.58395 80.6785L6.97014 80.374L6.52573 81.2699L6.08131 82.1657L6.69512 82.4702L7.13953 81.5744ZM6.52573 81.2699L6.97014 80.374C6.41243 80.0974 5.81124 80.1259 5.28177 80.4247L5.77333 81.2956L6.26489 82.1664C6.27115 82.1629 6.24114 82.1804 6.18369 82.1824C6.125 82.1844 6.08692 82.1685 6.08131 82.1657L6.52573 81.2699ZM5.77333 81.2956L5.28177 80.4247L4.66797 80.7712L5.15953 81.642L5.65109 82.5129L6.26489 82.1664L5.77333 81.2956ZM5.15953 81.642L4.66797 80.7712L4.05416 81.1177L4.54573 81.9885L5.03729 82.8594L5.65109 82.5129L5.15953 81.642ZM4.54573 81.9885L4.05416 81.1177C3.91113 81.1984 3.79892 81.2279 3.7117 81.235L3.79333 82.2317L3.87495 83.2283C4.28933 83.1944 4.67872 83.0618 5.03729 82.8594L4.54573 81.9885ZM3.79333 82.2317L3.7117 81.235L3.0979 81.2853L3.17953 82.282L3.26115 83.2786L3.87495 83.2283L3.79333 82.2317ZM3.17953 82.282L3.0979 81.2853L2.4841 81.3356L2.56573 82.3322L2.64736 83.3289L3.26115 83.2786L3.17953 82.282ZM2.56573 82.3322L2.4841 81.3356C2.54159 81.3308 2.73975 81.3351 2.92856 81.5007C3.01321 81.5749 3.06314 81.6548 3.09046 81.7147C3.11637 81.7715 3.12183 81.8095 3.12235 81.8133L2.132 81.9518L1.14164 82.0904C1.17969 82.3624 1.29222 82.7258 1.60983 83.0043C1.94322 83.2967 2.33906 83.3541 2.64736 83.3289L2.56573 82.3322ZM2.132 81.9518L3.12235 81.8133L3.02848 81.1423L2.03813 81.2809L1.04777 81.4195L1.14164 82.0904L2.132 81.9518ZM2.03813 81.2809L3.02848 81.1423L2.93461 80.4714L1.94426 80.61L0.953902 80.7486L1.04777 81.4195L2.03813 81.2809ZM1.94426 80.61L2.93461 80.4714C2.91017 80.2968 2.91518 80.1451 2.94092 80.0107L1.95876 79.8226L0.976608 79.6345C0.906296 80.0017 0.901628 80.3749 0.953902 80.7486L1.94426 80.61ZM1.95876 79.8226L2.94092 80.0107L3.05846 79.3969L2.0763 79.2088L1.09415 79.0207L0.976608 79.6345L1.95876 79.8226ZM2.0763 79.2088L3.05846 79.3969L3.17599 78.7831L2.19384 78.595L1.21169 78.4069L1.09415 79.0207L2.0763 79.2088ZM2.19384 78.595L3.17599 78.7831C3.28301 78.2242 3.12769 77.708 2.8389 77.2817L2.01101 77.8426L1.18312 78.4035C1.21253 78.4469 1.21457 78.4637 1.21243 78.4549C1.2114 78.4507 1.21002 78.4429 1.20976 78.4326C1.2095 78.4224 1.21045 78.4134 1.21169 78.4069L2.19384 78.595ZM2.01101 77.8426L2.8389 77.2817L2.42306 76.6679L1.59517 77.2288L0.767275 77.7897L1.18312 78.4035L2.01101 77.8426ZM1.59517 77.2288L2.42306 76.6679L2.00722 76.0541L1.17932 76.615L0.351432 77.1759L0.767275 77.7897L1.59517 77.2288ZM1.17932 76.615L2.00722 76.0541C1.98453 76.0206 1.99225 76.0203 1.99811 76.0509C2.00096 76.0658 2.00244 76.0836 2.00146 76.1025C2.00048 76.1213 1.99734 76.1361 1.99456 76.1455L1.03542 75.8626L0.0762678 75.5797C-0.0962111 76.1644 0.0435536 76.7214 0.351432 77.1759L1.17932 76.615ZM1.03542 75.8626L1.99456 76.1455L2.17561 75.5317L1.21646 75.2488L0.257312 74.9659L0.0762678 75.5797L1.03542 75.8626ZM1.21646 75.2488L2.17561 75.5317L2.35665 74.9179L1.3975 74.635L0.438355 74.3521L0.257312 74.9659L1.21646 75.2488ZM1.3975 74.635L2.35665 74.9179C2.48435 74.4849 2.4861 74.04 2.36117 73.606L1.40018 73.8826L0.439198 74.1592C0.458641 74.2267 0.458602 74.2834 0.438355 74.3521L1.3975 74.635ZM1.40018 73.8826L2.36117 73.606L2.18449 72.9922L1.22351 73.2688L0.262526 73.5454L0.439198 74.1592L1.40018 73.8826ZM1.22351 73.2688L2.18449 72.9922L2.00782 72.3784L1.04684 72.655L0.0858541 72.9316L0.262526 73.5454L1.22351 73.2688ZM1.04684 72.655L2.00782 72.3784C2.0098 72.3853 2.01231 72.397 2.01315 72.4124C2.014 72.4279 2.0129 72.4425 2.01072 72.4547C2.00617 72.4801 2.00033 72.4777 2.02156 72.4448L1.18131 71.9026L0.341065 71.3604C0.0476173 71.8151 -0.0781516 72.3618 0.0858541 72.9316L1.04684 72.655ZM1.18131 71.9026L2.02156 72.4448L2.41764 71.831L1.57739 71.2888L0.737142 70.7466L0.341065 71.3604L1.18131 71.9026ZM1.57739 71.2888L2.41764 71.831L2.81372 71.2172L1.97347 70.675L1.13322 70.1328L0.737142 70.7466L1.57739 71.2888ZM1.97347 70.675L2.81372 71.2172C3.03425 70.8754 3.19517 70.5042 3.26939 70.1057L2.2863 69.9226L1.30322 69.7395C1.284 69.8426 1.23636 69.9729 1.13322 70.1328L1.97347 70.675ZM2.2863 69.9226L3.26939 70.1057L3.38373 69.4919L2.40064 69.3088L1.41755 69.1257L1.30322 69.7395L2.2863 69.9226ZM2.40064 69.3088L3.38373 69.4919L3.49807 68.8781L2.51498 68.695L1.53189 68.5119L1.41755 69.1257L2.40064 69.3088ZM2.51498 68.695L3.49807 68.8781C3.56875 68.4987 3.56438 68.1165 3.4857 67.7387L2.50671 67.9426L1.52772 68.1465C1.55351 68.2703 1.55466 68.3896 1.53189 68.5119L2.51498 68.695ZM2.50671 67.9426L3.4857 67.7387L3.35787 67.1249L2.37887 67.3288L1.39988 67.5327L1.52772 68.1465L2.50671 67.9426ZM2.37887 67.3288L3.35787 67.1249L3.23003 66.5111L2.25104 66.715L1.27204 66.9189L1.39988 67.5327L2.37887 67.3288ZM2.25104 66.715L3.23003 66.5111C3.19973 66.3656 3.19401 66.2246 3.2112 66.0836L2.21855 65.9626L1.2259 65.8416C1.18193 66.2022 1.19787 66.5628 1.27204 66.9189L2.25104 66.715ZM2.21855 65.9626L3.2112 66.0836L3.28603 65.4698L2.29338 65.3488L1.30072 65.2278L1.2259 65.8416L2.21855 65.9626ZM2.29338 65.3488L3.28603 65.4698L3.36085 64.856L2.3682 64.735L1.37555 64.614L1.30072 65.2278L2.29338 65.3488ZM2.3682 64.735L3.36085 64.856C3.41702 64.3953 3.32825 63.9522 3.13218 63.547L2.23203 63.9826L1.33188 64.4182C1.37853 64.5146 1.38054 64.5731 1.37555 64.614L2.3682 64.735ZM2.23203 63.9826L3.13218 63.547L2.83518 62.9332L1.93502 63.3688L1.03487 63.8044L1.33188 64.4182L2.23203 63.9826ZM1.93502 63.3688L2.83518 62.9332L2.53817 62.3194L1.63801 62.755L0.737859 63.1906L1.03487 63.8044L1.93502 63.3688ZM1.63801 62.755L2.53817 62.3194C2.52155 62.2851 2.51951 62.2682 2.51925 62.266C2.51905 62.2642 2.51906 62.2632 2.51914 62.2621C2.51921 62.261 2.51953 62.2576 2.52115 62.2513L1.55257 62.0026L0.583993 61.7539C0.456146 62.2518 0.52196 62.7444 0.737859 63.1906L1.63801 62.755ZM1.55257 62.0026L2.52115 62.2513L2.67876 61.6375L1.71018 61.3888L0.741599 61.1401L0.583993 61.7539L1.55257 62.0026ZM1.71018 61.3888L2.67876 61.6375L2.83636 61.0237L1.86778 60.775L0.899204 60.5263L0.741599 61.1401L1.71018 61.3888ZM1.86778 60.775L2.83636 61.0237C2.92813 60.6663 2.95971 60.3018 2.92741 59.9349L1.93126 60.0226L0.935117 60.1103C0.946975 60.245 0.936233 60.3821 0.899204 60.5263L1.86778 60.775ZM1.93126 60.0226L2.92741 59.9349L2.87338 59.3211L1.87723 59.4088L0.881085 59.4965L0.935117 60.1103L1.93126 60.0226ZM1.87723 59.4088L2.87338 59.3211L2.81935 58.7073L1.8232 58.795L0.827053 58.8827L0.881085 59.4965L1.87723 59.4088ZM1.8232 58.795L2.81935 58.7073C2.80956 58.5961 2.82136 58.4795 2.8632 58.35L1.91162 58.0426L0.960052 57.7352C0.839833 58.1073 0.792688 58.4923 0.827053 58.8827L1.8232 58.795ZM1.91162 58.0426L2.8632 58.35L3.0615 57.7362L2.10993 57.4288L1.15835 57.1214L0.960052 57.7352L1.91162 58.0426ZM2.10993 57.4288L3.0615 57.7362L3.2598 57.1224L2.30823 56.815L1.35665 56.5076L1.15835 57.1214L2.10993 57.4288ZM2.30823 56.815L3.2598 57.1224C3.45336 56.5233 3.30842 55.9504 2.98655 55.4898L2.16686 56.0626L1.34718 56.6354C1.36942 56.6672 1.35819 56.6625 1.35085 56.6234C1.34727 56.6043 1.3457 56.5823 1.34725 56.5594C1.34878 56.5367 1.35299 56.5189 1.35665 56.5076L2.30823 56.815ZM2.16686 56.0626L2.98655 55.4898L2.5576 54.876L1.73792 55.4488L0.91824 56.0216L1.34718 56.6354L2.16686 56.0626ZM1.73792 55.4488L2.5576 54.876L2.12866 54.2622L1.30898 54.835L0.489295 55.4078L0.91824 56.0216L1.73792 55.4488ZM1.30898 54.835L2.12866 54.2622C2.11298 54.2397 2.13369 54.2611 2.1421 54.3218C2.14617 54.3513 2.1461 54.382 2.14194 54.4113C2.13784 54.4402 2.13077 54.4608 2.12617 54.4716L1.20496 54.0826L0.283744 53.6935C0.025512 54.305 0.145985 54.9165 0.489295 55.4078L1.30898 54.835ZM1.20496 54.0826L2.12617 54.4716L2.3854 53.8578L1.46419 53.4688L0.542974 53.0797L0.283744 53.6935L1.20496 54.0826ZM1.46419 53.4688L2.3854 53.8578L2.64463 53.244L1.72342 52.855L0.802203 52.4659L0.542974 53.0797L1.46419 53.4688ZM1.72342 52.855L2.64463 53.244C2.79873 52.8792 2.8824 52.4945 2.88016 52.0969L1.88017 52.1026L0.88019 52.1082C0.880777 52.2123 0.85994 52.3292 0.802203 52.4659L1.72342 52.855ZM1.88017 52.1026L2.88016 52.0969L2.87669 51.4831L1.87671 51.4888L0.876726 51.4944L0.88019 52.1082L1.88017 52.1026ZM1.87671 51.4888L2.87669 51.4831L2.87323 50.8693L1.87325 50.875L0.873262 50.8806L0.876726 51.4944L1.87671 51.4888ZM1.87325 50.875L2.87323 50.8693C2.87158 50.5778 2.85217 50.2867 2.81513 49.9961L1.82316 50.1226L0.831188 50.2491C0.858096 50.4601 0.872076 50.6706 0.873262 50.8806L1.87325 50.875ZM1.82316 50.1226L2.81513 49.9961L2.73687 49.3823L1.7449 49.5088L0.75293 49.6353L0.831188 50.2491L1.82316 50.1226ZM1.7449 49.5088L2.73687 49.3823L2.65861 48.7685L1.66664 48.895L0.674673 49.0215L0.75293 49.6353L1.7449 49.5088ZM1.66664 48.895L2.65861 48.7685C2.64456 48.6583 2.65237 48.5456 2.68833 48.4221L1.72818 48.1426L0.768021 47.8631C0.65799 48.2412 0.62477 48.6301 0.674673 49.0215L1.66664 48.895ZM1.72818 48.1426L2.68833 48.4221L2.86699 47.8083L1.90683 47.5288L0.946676 47.2493L0.768021 47.8631L1.72818 48.1426ZM1.90683 47.5288L2.86699 47.8083L3.04564 47.1945L2.08549 46.915L1.12533 46.6355L0.946676 47.2493L1.90683 47.5288ZM2.08549 46.915L3.04564 47.1945C3.16555 46.7825 3.17961 46.3585 3.0833 45.9389L2.10864 46.1626L1.13398 46.3863C1.1528 46.4683 1.15142 46.5459 1.12533 46.6355L2.08549 46.915ZM2.10864 46.1626L3.0833 45.9389L2.94242 45.3251L1.96776 45.5488L0.993104 45.7725L1.13398 46.3863L2.10864 46.1626ZM1.96776 45.5488L2.94242 45.3251L2.80154 44.7113L1.82688 44.935L0.852226 45.1587L0.993104 45.7725L1.96776 45.5488ZM1.82688 44.935L2.80154 44.7113C2.75852 44.5238 2.73524 44.3394 2.73057 44.157L1.7309 44.1826L0.731225 44.2082C0.739406 44.5274 0.780122 44.8445 0.852226 45.1587L1.82688 44.935ZM1.7309 44.1826L2.73057 44.157L2.71483 43.5432L1.71516 43.5688L0.715491 43.5944L0.731225 44.2082L1.7309 44.1826ZM1.71516 43.5688L2.71483 43.5432L2.6991 42.9294L1.69943 42.955L0.699758 42.9806L0.715491 43.5944L1.71516 43.5688ZM1.69943 42.955L2.6991 42.9294C2.69262 42.6765 2.68536 42.4236 2.67731 42.1708L1.67781 42.2026L0.67832 42.2344C0.686236 42.4831 0.693382 42.7319 0.699758 42.9806L1.69943 42.955ZM1.67781 42.2026L2.67731 42.1708L2.65777 41.557L1.65828 41.5888L0.658786 41.6206L0.67832 42.2344L1.67781 42.2026ZM1.65828 41.5888L2.65777 41.557L2.63824 40.9432L1.63875 40.975L0.639251 41.0068L0.658786 41.6206L1.65828 41.5888ZM1.63875 40.975L2.63824 40.9432C2.62968 40.6743 2.61381 40.4054 2.59065 40.1367L1.59434 40.2226L0.598038 40.3085C0.618112 40.5413 0.631846 40.7741 0.639251 41.0068L1.63875 40.975ZM1.59434 40.2226L2.59065 40.1367L2.53774 39.5229L1.54143 39.6088L0.545127 39.6947L0.598038 40.3085L1.59434 40.2226ZM1.54143 39.6088L2.53774 39.5229L2.48483 38.9091L1.48852 38.995L0.492216 39.0809L0.545127 39.6947L1.54143 39.6088ZM1.48852 38.995L2.48483 38.9091C2.46008 38.6221 2.41966 38.3358 2.36374 38.0503L1.3824 38.2426L0.401049 38.4348C0.443397 38.651 0.47372 38.8663 0.492216 39.0809L1.48852 38.995ZM1.3824 38.2426L2.36374 38.0503L2.2435 37.4365L1.26216 37.6288L0.280808 37.821L0.401049 38.4348L1.3824 38.2426ZM1.26216 37.6288L2.2435 37.4365L2.12326 36.8227L1.14191 37.015L0.160567 37.2072L0.280808 37.821L1.26216 37.6288ZM1.14191 37.015L2.12326 36.8227C2.09814 36.6945 2.09743 36.57 2.12074 36.4427L1.13709 36.2626L0.153442 36.0825C0.0849236 36.4568 0.0874245 36.8339 0.160567 37.2072L1.14191 37.015ZM1.13709 36.2626L2.12074 36.4427L2.23312 35.8289L1.24947 35.6488L0.265815 35.4687L0.153442 36.0825L1.13709 36.2626ZM1.24947 35.6488L2.23312 35.8289L2.34549 35.2151L1.36184 35.035L0.378188 34.8549L0.265815 35.4687L1.24947 35.6488ZM1.36184 35.035L2.34549 35.2151C2.37633 35.0466 2.4302 34.8706 2.51159 34.686L1.59656 34.2826L0.681523 33.8792C0.541787 34.1962 0.439184 34.5217 0.378188 34.8549L1.36184 35.035ZM1.59656 34.2826L2.51159 34.686L2.78217 34.0722L1.86714 33.6688L0.952109 33.2654L0.681523 33.8792L1.59656 34.2826ZM1.86714 33.6688L2.78217 34.0722L3.05276 33.4584L2.13773 33.055L1.22269 32.6516L0.952109 33.2654L1.86714 33.6688ZM2.13773 33.055L3.05276 33.4584C3.25901 32.9905 3.2925 32.4845 3.12896 31.9891L2.17937 32.3026L1.22978 32.6161C1.23104 32.6199 1.23175 32.6226 1.23214 32.6243C1.23253 32.6259 1.23264 32.6267 1.23265 32.6268C1.23266 32.6269 1.2326 32.6265 1.23257 32.6257C1.23254 32.625 1.2321 32.625 1.23214 32.6243C1.23223 32.6227 1.23347 32.6221 1.23257 32.6257C1.23164 32.6295 1.22858 32.6383 1.22269 32.6516L2.13773 33.055ZM2.17937 32.3026L3.12896 31.9891L2.92632 31.3753L1.97673 31.6888L1.02714 32.0023L1.22978 32.6161L2.17937 32.3026ZM1.97673 31.6888L2.92632 31.3753L2.72368 30.7615L1.77409 31.075L0.824505 31.3885L1.02714 32.0023L1.97673 31.6888ZM1.77409 31.075L2.72368 30.7615C2.66442 30.582 2.6294 30.4088 2.61554 30.2405L1.61891 30.3226L0.622286 30.4047C0.64974 30.738 0.718168 31.0664 0.824505 31.3885L1.77409 31.075ZM1.61891 30.3226L2.61554 30.2405L2.56498 29.6267L1.56836 29.7088L0.571732 29.7909L0.622286 30.4047L1.61891 30.3226ZM1.56836 29.7088L2.56498 29.6267L2.51443 29.0129L1.5178 29.095L0.521177 29.1771L0.571732 29.7909L1.56836 29.7088ZM1.5178 29.095L2.51443 29.0129C2.50765 28.9306 2.51864 28.837 2.56621 28.7204L1.64032 28.3426L0.714422 27.9648C0.557325 28.3498 0.48664 28.7578 0.521177 29.1771L1.5178 29.095ZM1.64032 28.3426L2.56621 28.7204L2.81665 28.1066L1.89076 27.7288L0.964868 27.351L0.714422 27.9648L1.64032 28.3426ZM1.89076 27.7288L2.81665 28.1066L3.0671 27.4928L2.14121 27.115L1.21531 26.7372L0.964868 27.351L1.89076 27.7288ZM2.14121 27.115L3.0671 27.4928C3.27106 26.9929 3.265 26.4648 3.054 25.9702L2.13421 26.3626L1.21442 26.755C1.218 26.7634 1.21831 26.7661 1.21777 26.7636C1.21719 26.761 1.21632 26.7555 1.21625 26.7481C1.21618 26.7407 1.21695 26.7348 1.21763 26.7314C1.21827 26.7282 1.21828 26.7299 1.21531 26.7372L2.14121 27.115ZM2.13421 26.3626L3.054 25.9702L2.79215 25.3564L1.87235 25.7488L0.952558 26.1412L1.21442 26.755L2.13421 26.3626ZM1.87235 25.7488L2.79215 25.3564L2.53029 24.7426L1.61049 25.135L0.690699 25.5274L0.952558 26.1412L1.87235 25.7488ZM1.61049 25.135L2.53029 24.7426C2.4971 24.6648 2.49813 24.6191 2.50604 24.5798L1.52568 24.3826L0.545321 24.1854C0.452326 24.6476 0.509897 25.1036 0.690699 25.5274L1.61049 25.135ZM1.52568 24.3826L2.50604 24.5798L2.62952 23.966L1.64916 23.7688L0.668801 23.5716L0.545321 24.1854L1.52568 24.3826ZM1.64916 23.7688L2.62952 23.966L2.753 23.3522L1.77264 23.155L0.79228 22.9578L0.668801 23.5716L1.64916 23.7688ZM1.77264 23.155L2.753 23.3522C2.79463 23.1453 2.85109 22.9362 2.92304 22.7249L1.97642 22.4026L1.02979 22.0803C0.930947 22.3705 0.851558 22.6631 0.79228 22.9578L1.77264 23.155ZM1.97642 22.4026L2.92304 22.7249L3.13204 22.1111L2.18541 21.7888L1.23878 21.4665L1.02979 22.0803L1.97642 22.4026ZM2.18541 21.7888L3.13204 22.1111L3.34104 21.4973L2.39441 21.175L1.44778 20.8527L1.23878 21.4665L2.18541 21.7888ZM2.39441 21.175L3.34104 21.4973C3.53812 20.9185 3.42409 20.3518 3.12082 19.881L2.28015 20.4226L1.43949 20.9641C1.45719 20.9916 1.44676 20.9854 1.44123 20.9489C1.43857 20.9314 1.43791 20.9122 1.43972 20.893C1.44152 20.874 1.44524 20.8601 1.44778 20.8527L2.39441 21.175ZM2.28015 20.4226L3.12082 19.881L2.7254 19.2672L1.88474 19.8088L1.04408 20.3503L1.43949 20.9641L2.28015 20.4226ZM1.88474 19.8088L2.7254 19.2672L2.32998 18.6534L1.48932 19.195L0.648662 19.7365L1.04408 20.3503L1.88474 19.8088ZM1.48932 19.195L2.32998 18.6534C2.32805 18.6504 2.35755 18.697 2.36066 18.7825C2.36384 18.8701 2.33674 18.9274 2.33019 18.9388L1.462 18.4426L0.593809 17.9464C0.443901 18.2086 0.349683 18.5166 0.361974 18.8551C0.374188 19.1914 0.489029 19.4888 0.648662 19.7365L1.48932 19.195ZM1.462 18.4426L2.33019 18.9388L2.68102 18.325L1.81283 17.8288L0.944643 17.3326L0.593809 17.9464L1.462 18.4426ZM1.81283 17.8288L2.68102 18.325L3.03185 17.7112L2.16366 17.215L1.29548 16.7187L0.944643 17.3326L1.81283 17.8288ZM2.16366 17.215L3.03185 17.7112C3.33194 17.1862 3.36781 16.5866 3.09588 16.0261L2.19618 16.4626L1.29647 16.8991C1.29308 16.8921 1.27774 16.8536 1.28024 16.7956C1.28268 16.7392 1.30001 16.7108 1.29548 16.7187L2.16366 17.215ZM2.19618 16.4626L3.09588 16.0261L2.7981 15.4123L1.89839 15.8488L0.998685 16.2853L1.29647 16.8991L2.19618 16.4626ZM1.89839 15.8488L2.7981 15.4123L2.50031 14.7985L1.6006 15.235L0.700898 15.6715L0.998685 16.2853L1.89839 15.8488ZM1.6006 15.235L2.50031 14.7985C2.45235 14.6996 2.44939 14.6382 2.45429 14.5949L1.46061 14.4826L0.466943 14.3703C0.415138 14.8286 0.505505 15.2687 0.700898 15.6715L1.6006 15.235ZM1.46061 14.4826L2.45429 14.5949L2.52367 13.9811L1.53 13.8688L0.536327 13.7565L0.466943 14.3703L1.46061 14.4826ZM1.53 13.8688L2.52367 13.9811L2.59305 13.3673L1.59938 13.255L0.605711 13.1427L0.536327 13.7565L1.53 13.8688ZM1.59938 13.255L2.59305 13.3673C2.62911 13.0484 2.63223 12.7287 2.60233 12.4094L1.60668 12.5026L0.611037 12.5958C0.628103 12.7781 0.626359 12.96 0.605711 13.1427L1.59938 13.255ZM1.60668 12.5026L2.60233 12.4094L2.54485 11.7956L1.54921 11.8888L0.553562 11.982L0.611037 12.5958L1.60668 12.5026ZM1.54921 11.8888L2.54485 11.7956L2.48738 11.1818L1.49173 11.275L0.496087 11.3682L0.553562 11.982L1.54921 11.8888ZM1.49173 11.275L2.48738 11.1818C2.48653 11.1727 2.48131 11.1305 2.53973 11.0318L1.67907 10.5226L0.818402 10.0134C0.580078 10.4163 0.449966 10.8757 0.496087 11.3682L1.49173 11.275ZM1.67907 10.5226L2.53973 11.0318L2.90286 10.418L2.04219 9.90879L1.18153 9.39961L0.818402 10.0134L1.67907 10.5226ZM2.04219 9.90879L2.90286 10.418L3.26599 9.80416L2.40532 9.29499L1.54466 8.78581L1.18153 9.39961L2.04219 9.90879ZM2.40532 9.29499L3.26599 9.80416C3.4349 9.51864 3.53258 9.17286 3.48545 8.79501C3.43976 8.42875 3.27014 8.12881 3.07677 7.89891L2.31147 8.54259L1.54617 9.18626C1.56375 9.20716 1.51523 9.15802 1.50083 9.04256C1.48498 8.91551 1.52411 8.82054 1.54466 8.78581L2.40532 9.29499ZM2.31147 8.54259L3.07677 7.89891L2.56051 7.28511L1.79522 7.92879L1.02992 8.57246L1.54617 9.18626L2.31147 8.54259ZM1.79522 7.92879L2.56051 7.28511L2.04426 6.67131L1.27896 7.31499L0.513665 7.95867L1.02992 8.57246L1.79522 7.92879ZM1.27896 7.31499L2.04426 6.67131C2.00503 6.62467 2.01147 6.61703 2.02143 6.65003C2.02657 6.66709 2.03126 6.69068 2.03215 6.71883C2.03305 6.74709 2.02991 6.77288 2.02489 6.794L1.05203 6.56259L0.0791769 6.33118C-0.0732594 6.97204 0.159971 7.53814 0.513665 7.95867L1.27896 7.31499ZM1.05203 6.56259L2.02489 6.794L2.17089 6.1802L1.19803 5.94879L0.225178 5.71738L0.0791769 6.33118L1.05203 6.56259ZM1.19803 5.94879L2.17089 6.1802L2.31689 5.56639L1.34404 5.33499L0.371179 5.10358L0.225178 5.71738L1.19803 5.94879ZM1.34404 5.33499L2.31689 5.56639C2.38251 5.29053 2.43702 5.01405 2.48032 4.737L1.49232 4.58259L0.50431 4.42817C0.469215 4.65272 0.424874 4.87784 0.371179 5.10358L1.34404 5.33499ZM1.49232 4.58259L2.48032 4.737L2.57625 4.1232L1.58825 3.96878L0.60024 3.81437L0.50431 4.42817L1.49232 4.58259ZM1.58825 3.96878L2.57625 4.1232L2.67218 3.5094L1.68418 3.35498L0.69617 3.20057L0.60024 3.81437L1.58825 3.96878ZM1.68418 3.35498L2.67218 3.5094C2.72407 3.17741 2.73617 2.78981 2.60625 2.41751L1.66209 2.74698L0.717919 3.07645C0.705164 3.0399 0.70783 3.02693 0.708711 3.05119C0.709583 3.07518 0.708255 3.12325 0.69617 3.20057L1.68418 3.35498ZM1.66209 2.74698L2.60625 2.41751L2.47428 2.03932L1.53011 2.36879L0.585946 2.69825L0.717919 3.07645L1.66209 2.74698ZM1.53011 2.36879L2.47428 2.03932L2.34231 1.66112L1.39814 1.99059L0.453973 2.32006L0.585946 2.69825L1.53011 2.36879ZM1.39814 1.99059L2.34231 1.66112C2.32069 1.59917 2.36205 1.68579 2.35872 1.8385C2.35705 1.91528 2.34255 2.1481 2.16558 2.37998C1.94867 2.66418 1.63784 2.75879 1.40319 2.75879V1.75879V0.758789C1.13988 0.758789 0.807369 0.863052 0.575716 1.16658C0.383999 1.41777 0.361707 1.67956 0.359195 1.79497C0.354188 2.02495 0.421668 2.22748 0.453973 2.32006L1.39814 1.99059ZM1.40319 1.75879V2.75879H1.54339V1.75879V0.758789H1.40319V1.75879ZM1.54339 1.75879V2.75879H1.6836V1.75879V0.758789H1.54339V1.75879ZM1.6836 1.75879V2.75879C1.88261 2.75879 2.07297 2.69873 2.13197 2.68086C2.23744 2.64892 2.3605 2.60589 2.49444 2.55605L2.14573 1.61882L1.79703 0.681588C1.68016 0.725068 1.6008 0.75202 1.55223 0.766731C1.52767 0.77417 1.52169 0.775196 1.52913 0.773555C1.53326 0.772643 1.54702 0.769684 1.56791 0.766694C1.58626 0.764067 1.62781 0.758789 1.6836 0.758789V1.75879ZM2.14573 1.61882L2.49444 2.55605L3.10824 2.32769L2.75953 1.39045L2.41083 0.45322L1.79703 0.681588L2.14573 1.61882Z" fill="var(--fill-0, #58423C)"/>
</g>
<defs>
<clipPath id="clip0_0_5">
<rect width="84" height="84" fill="white"/>
</clipPath>
</defs>
</svg>
