<svg width="107" height="36" viewBox="0 0 107 36" fill="none" xmlns="http://www.w3.org/2000/svg" aria-hidden="true">
  <rect x="1.766" y="1.832" width="103.009" height="32.000" fill="#58423C"/>
  <g transform="translate(0,0) scale(0.9999849899150992,0.9999663345004041)">
    <path d="M2.75809 1.46407L3.1068 2.40131L3.7206 2.17294L3.37189 1.23571L3.02319 0.298472L2.40939 0.526841L2.75809 1.46407ZM3.37189 1.23571L3.7206 2.17294C3.79581 2.14495 3.84751 2.1448 3.89989 2.15686L4.12429 1.18237L4.34869 0.207868C3.89947 0.104426 3.44957 0.139833 3.02319 0.298472L3.37189 1.23571ZM4.12429 1.18237L3.89989 2.15686L4.51369 2.2982L4.73809 1.32371L4.96249 0.349209L4.34869 0.207868L4.12429 1.18237ZM4.73809 1.32371L4.51369 2.2982L5.12749 2.43954L5.35189 1.46505L5.57629 0.490549L4.96249 0.349209L4.73809 1.32371ZM5.35189 1.46505L5.12749 2.43954C5.37807 2.49725 5.62865 2.55504 5.87923 2.61292L6.10429 1.63857L6.32935 0.664228C6.07833 0.606245 5.82731 0.548352 5.57629 0.490549L5.35189 1.46505ZM6.10429 1.63857L5.87923 2.61292L6.49303 2.7547L6.71809 1.78035L6.94315 0.806008L6.32935 0.664228L6.10429 1.63857ZM6.71809 1.78035L6.49303 2.7547L7.10683 2.89648L7.33189 1.92213L7.55695 0.947789L6.94315 0.806008L6.71809 1.78035ZM7.33189 1.92213L7.10683 2.89648C7.5743 3.00446 8.03909 2.95465 8.4718 2.77276L8.08429 1.8509L7.69678 0.929029C7.62789 0.957989 7.59108 0.955672 7.55695 0.947789L7.33189 1.92213ZM8.08429 1.8509L8.4718 2.77276L9.0856 2.51475L8.69809 1.59288L8.31058 0.671016L7.69678 0.929029L8.08429 1.8509ZM8.69809 1.59288L9.0856 2.51475L9.6994 2.25674L9.31189 1.33487L8.92438 0.413003L8.31058 0.671016L8.69809 1.59288ZM9.31189 1.33487L9.6994 2.25674C9.77155 2.22641 9.81195 2.22821 9.84856 2.2363L10.0643 1.25985L10.2801 0.283395C9.81503 0.180663 9.35383 0.232484 8.92438 0.413003L9.31189 1.33487ZM10.0643 1.25985L9.84856 2.2363L10.4624 2.37191L10.6781 1.39546L10.8939 0.419005L10.2801 0.283395L10.0643 1.25985ZM10.6781 1.39546L10.4624 2.37191L11.0762 2.50752L11.2919 1.53107L11.5077 0.554614L10.8939 0.419005L10.6781 1.39546ZM11.2919 1.53107L11.0762 2.50752C11.3207 2.56154 11.5652 2.61805 11.8098 2.67706L12.0443 1.70495L12.2789 0.732845C12.0218 0.67083 11.7648 0.611419 11.5077 0.554614L11.2919 1.53107ZM12.0443 1.70495L11.8098 2.67706L12.4236 2.82515L12.6581 1.85305L12.8927 0.880939L12.2789 0.732845L12.0443 1.70495ZM12.6581 1.85305L12.4236 2.82515L13.0374 2.97325L13.2719 2.00114L13.5065 1.02903L12.8927 0.880939L12.6581 1.85305ZM13.2719 2.00114L13.0374 2.97325C13.4463 3.07191 13.8617 3.06937 14.2694 2.96634L14.0243 1.99682L13.7793 1.02731C13.6853 1.05106 13.5991 1.05139 13.5065 1.02903L13.2719 2.00114ZM14.0243 1.99682L14.2694 2.96634L14.8832 2.8112L14.6381 1.84169L14.3931 0.872173L13.7793 1.02731L14.0243 1.99682ZM14.6381 1.84169L14.8832 2.8112L15.497 2.65606L15.2519 1.68655L15.0069 0.717035L14.3931 0.872173L14.6381 1.84169ZM15.2519 1.68655L15.497 2.65606C15.6457 2.61848 15.7877 2.60677 15.9273 2.61755L16.0043 1.62051L16.0813 0.623481C15.7193 0.595528 15.3598 0.627835 15.0069 0.717035L15.2519 1.68655ZM16.0043 1.62051L15.9273 2.61755L16.5411 2.66494L16.6181 1.66791L16.6951 0.670878L16.0813 0.623481L16.0043 1.62051ZM16.6181 1.66791L16.5411 2.66494L17.1549 2.71234L17.2319 1.71531L17.3089 0.718276L16.6951 0.670878L16.6181 1.66791ZM17.2319 1.71531L17.1549 2.71234C17.3214 2.7252 17.4929 2.75939 17.671 2.81813L17.9843 1.8685L18.2977 0.918863C17.9741 0.812089 17.644 0.744154 17.3089 0.718276L17.2319 1.71531ZM17.9843 1.8685L17.671 2.81813L18.2848 3.02067L18.5981 2.07104L18.9115 1.12141L18.2977 0.918863L17.9843 1.8685ZM18.5981 2.07104L18.2848 3.02067L18.8986 3.22322L19.2119 2.27358L19.5253 1.32395L18.9115 1.12141L18.5981 2.07104ZM19.2119 2.27358L18.8986 3.22322C19.4024 3.38948 19.9152 3.34828 20.3845 3.13101L19.9643 2.22355L19.5442 1.31609C19.531 1.3222 19.5231 1.32455 19.5203 1.32529C19.5177 1.326 19.5184 1.32557 19.5218 1.32535C19.5252 1.32512 19.5285 1.32529 19.5306 1.32558C19.5327 1.32585 19.5311 1.32587 19.5253 1.32395L19.2119 2.27358ZM19.9643 2.22355L20.3845 3.13101L20.9983 2.84684L20.5781 1.93937L20.158 1.03191L19.5442 1.31609L19.9643 2.22355ZM20.5781 1.93937L20.9983 2.84684L21.6121 2.56266L21.1919 1.6552L20.7718 0.747736L20.158 1.03191L20.5781 1.93937ZM21.1919 1.6552L21.6121 2.56266C21.6122 2.56261 21.6101 2.56358 21.6059 2.56501C21.6016 2.56644 21.5955 2.56823 21.5877 2.5699C21.5713 2.57338 21.5513 2.57544 21.5297 2.57461C21.4828 2.5728 21.46 2.5591 21.4693 2.56408L21.9443 1.68413L22.4194 0.804184C21.9014 0.524527 21.319 0.494388 20.7718 0.747736L21.1919 1.6552ZM21.9443 1.68413L21.4693 2.56408L22.0831 2.89546L22.5581 2.01552L23.0332 1.13557L22.4194 0.804184L21.9443 1.68413ZM22.5581 2.01552L22.0831 2.89546L22.6969 3.22685L23.1719 2.3469L23.647 1.46695L23.0332 1.13557L22.5581 2.01552ZM23.1719 2.3469L22.6969 3.22685C23.1785 3.48686 23.7246 3.54933 24.2633 3.35528L23.9243 2.41447L23.5854 1.47366C23.5853 1.47369 23.5868 1.47315 23.5898 1.47241C23.5928 1.47166 23.597 1.4708 23.6022 1.47009C23.6132 1.46861 23.6255 1.46827 23.6376 1.46935C23.6496 1.47043 23.6575 1.47255 23.6603 1.47345C23.6629 1.47426 23.6585 1.47318 23.647 1.46695L23.1719 2.3469ZM23.9243 2.41447L24.2633 3.35528L24.8771 3.13415L24.5381 2.19334L24.1992 1.25254L23.5854 1.47366L23.9243 2.41447ZM24.5381 2.19334L24.8771 3.13415L25.4909 2.91302L25.1519 1.97222L24.813 1.03141L24.1992 1.25254L24.5381 2.19334ZM25.1519 1.97222L25.4909 2.91302C25.6319 2.86222 25.7589 2.84323 25.8775 2.84641L25.9043 1.84677L25.9311 0.847123C25.5482 0.836862 25.1736 0.901504 24.813 1.03141L25.1519 1.97222ZM25.9043 1.84677L25.8775 2.84641L26.4913 2.86285L26.5181 1.86321L26.5449 0.86357L25.9311 0.847123L25.9043 1.84677ZM26.5181 1.86321L26.4913 2.86285L27.1051 2.8793L27.1319 1.87966L27.1587 0.880017L26.5449 0.86357L26.5181 1.86321ZM27.1319 1.87966L27.1051 2.8793C27.3186 2.88502 27.5325 2.90269 27.747 2.93243L27.8843 1.94191L28.0217 0.951388C27.7346 0.911571 27.4469 0.887738 27.1587 0.880017L27.1319 1.87966ZM27.8843 1.94191L27.747 2.93243L28.3608 3.01755L28.4981 2.02703L28.6355 1.03651L28.0217 0.951388L27.8843 1.94191ZM28.4981 2.02703L28.3608 3.01755L28.9746 3.10267L29.1119 2.11215L29.2493 1.12163L28.6355 1.03651L28.4981 2.02703ZM29.1119 2.11215L28.9746 3.10267C29.4283 3.16559 29.8686 3.08972 30.2758 2.90593L29.8643 1.9945L29.4529 1.08306C29.3584 1.1257 29.2972 1.12828 29.2493 1.12163L29.1119 2.11215ZM29.8643 1.9945L30.2758 2.90593L30.8896 2.62885L30.4781 1.71741L30.0667 0.805977L29.4529 1.08306L29.8643 1.9945ZM30.4781 1.71741L30.8896 2.62885L31.5034 2.35177L31.0919 1.44033L30.6805 0.528893L30.0667 0.805977L30.4781 1.71741ZM31.0919 1.44033L31.5034 2.35177C31.4936 2.35616 31.4734 2.36381 31.4441 2.36869C31.4142 2.37366 31.3819 2.37456 31.3501 2.37078C31.2841 2.36294 31.258 2.34012 31.2769 2.35317L31.8443 1.52975L32.4118 0.706331C31.9096 0.360267 31.2894 0.254018 30.6805 0.528893L31.0919 1.44033ZM31.8443 1.52975L31.2769 2.35317L31.8907 2.77615L32.4581 1.95273L33.0256 1.12931L32.4118 0.706331L31.8443 1.52975ZM32.4581 1.95273L31.8907 2.77615L32.5045 3.19913L33.0719 2.37571L33.6394 1.55229L33.0256 1.12931L32.4581 1.95273ZM33.0719 2.37571L32.5045 3.19913C32.7682 3.38085 33.1012 3.51171 33.4841 3.49791C33.8633 3.48425 34.1826 3.33263 34.43 3.14432L33.8243 2.34861L33.2187 1.55289C33.2152 1.55549 33.2837 1.50383 33.4121 1.49921C33.5442 1.49445 33.6265 1.54341 33.6394 1.55229L33.0719 2.37571ZM33.8243 2.34861L34.43 3.14432L35.0438 2.67711L34.4381 1.8814L33.8325 1.08568L33.2187 1.55289L33.8243 2.34861ZM34.4381 1.8814L35.0438 2.67711L35.6576 2.2099L35.0519 1.41419L34.4463 0.618474L33.8325 1.08568L34.4381 1.8814ZM35.0519 1.41419L35.6576 2.2099C35.7097 2.17022 35.735 2.16255 35.733 2.1632C35.7318 2.1636 35.7255 2.1654 35.7153 2.16642C35.7049 2.16746 35.6941 2.16731 35.6842 2.16612L35.8043 1.17336L35.9245 0.180601C35.355 0.111687 34.8502 0.311019 34.4463 0.618474L35.0519 1.41419ZM35.8043 1.17336L35.6842 2.16612L36.298 2.2404L36.4181 1.24764L36.5383 0.254882L35.9245 0.180601L35.8043 1.17336ZM36.4181 1.24764L36.298 2.2404L36.9118 2.31468L37.0319 1.32192L37.1521 0.329163L36.5383 0.254882L36.4181 1.24764ZM37.0319 1.32192L36.9118 2.31468C37.1665 2.3455 37.4212 2.3748 37.6759 2.40258L37.7843 1.40847L37.8927 0.414363C37.6459 0.387442 37.399 0.359042 37.1521 0.329163L37.0319 1.32192ZM37.7843 1.40847L37.6759 2.40258L38.2897 2.46951L38.3981 1.4754L38.5065 0.481295L37.8927 0.414363L37.7843 1.40847ZM38.3981 1.4754L38.2897 2.46951L38.9035 2.53644L39.0119 1.54234L39.1203 0.548228L38.5065 0.481295L38.3981 1.4754ZM39.0119 1.54234L38.9035 2.53644C39.2402 2.57316 39.5773 2.56617 39.9127 2.51586L39.7643 1.52692L39.616 0.537989C39.4497 0.562927 39.2852 0.566209 39.1203 0.548228L39.0119 1.54234ZM39.7643 1.52692L39.9127 2.51586L40.5265 2.42378L40.3781 1.43485L40.2298 0.44591L39.616 0.537989L39.7643 1.52692ZM40.3781 1.43485L40.5265 2.42378L41.1403 2.3317L40.9919 1.34277L40.8436 0.353831L40.2298 0.44591L40.3781 1.43485ZM40.9919 1.34277L41.1403 2.3317C41.1362 2.33231 41.1306 2.33267 41.1246 2.33234C41.1187 2.33201 41.1153 2.33117 41.1156 2.33123C41.1159 2.3313 41.1393 2.33738 41.1866 2.36914L41.7443 1.53915L42.3021 0.709154C41.886 0.429547 41.3872 0.272279 40.8436 0.353831L40.9919 1.34277ZM41.7443 1.53915L41.1866 2.36914L41.8004 2.78163L42.3581 1.95164L42.9159 1.12164L42.3021 0.709154L41.7443 1.53915ZM42.3581 1.95164L41.8004 2.78163L42.4142 3.19412L42.9719 2.36413L43.5297 1.53413L42.9159 1.12164L42.3581 1.95164ZM42.9719 2.36413L42.4142 3.19412C42.9209 3.53468 43.5394 3.62939 44.1412 3.35338L43.7243 2.44441L43.3075 1.53544C43.3297 1.52525 43.3842 1.50878 43.4542 1.51625C43.5196 1.52323 43.5467 1.54557 43.5297 1.53413L42.9719 2.36413ZM43.7243 2.44441L44.1412 3.35338L44.755 3.07188L44.3381 2.16292L43.9213 1.25395L43.3075 1.53544L43.7243 2.44441ZM44.3381 2.16292L44.755 3.07188L45.3688 2.79039L44.9519 1.88142L44.5351 0.97245L43.9213 1.25395L44.3381 2.16292ZM44.9519 1.88142L45.3688 2.79039C45.3803 2.7851 45.3863 2.78354 45.3869 2.78337C45.3874 2.78326 45.3844 2.78401 45.379 2.78429C45.3735 2.78457 45.3685 2.78421 45.365 2.78368C45.3618 2.78318 45.3626 2.78294 45.3683 2.78496L45.7043 1.84312L46.0404 0.901271C45.5342 0.720673 45.0134 0.753077 44.5351 0.97245L44.9519 1.88142ZM45.7043 1.84312L45.3683 2.78496L45.9821 3.00396L46.3181 2.06212L46.6542 1.12027L46.0404 0.901271L45.7043 1.84312ZM46.3181 2.06212L45.9821 3.00396L46.5959 3.22297L46.9319 2.28112L47.268 1.33928L46.6542 1.12027L46.3181 2.06212ZM46.9319 2.28112L46.5959 3.22297C47.0869 3.39816 47.5953 3.37925 48.0706 3.18016L47.6843 2.25779L47.298 1.33542C47.2862 1.34037 47.2792 1.34215 47.2768 1.3427C47.2746 1.34277 47.2745 1.34322 47.2768 1.3427C47.2791 1.34263 47.2809 1.34303 47.2808 1.34301C47.2806 1.34296 47.2765 1.3423 47.268 1.33928L46.9319 2.28112ZM47.6843 2.25779L48.0706 3.18016L48.6844 2.92308L48.2981 2.00071L47.9118 1.07834L47.298 1.33542L47.6843 2.25779ZM48.2981 2.00071L48.6844 2.92308L49.2982 2.66601L48.9119 1.74364L48.5256 0.821271L47.9118 1.07834L48.2981 2.00071ZM48.9119 1.74364L49.2982 2.66601C49.2972 2.66646 49.2887 2.66982 49.2737 2.67247C49.2584 2.67517 49.2406 2.67635 49.2221 2.67512C49.1823 2.67249 49.1666 2.66094 49.1817 2.66921L49.6643 1.79341L50.147 0.91761C49.6453 0.641098 49.0749 0.591231 48.5256 0.821271L48.9119 1.74364ZM49.6643 1.79341L49.1817 2.66921L49.7955 3.00749L50.2781 2.13169L50.7608 1.25589L50.147 0.91761L49.6643 1.79341ZM50.2781 2.13169L49.7955 3.00749L50.4093 3.34577L50.8919 2.46997L51.3746 1.59417L50.7608 1.25589L50.2781 2.13169ZM50.8919 2.46997L50.4093 3.34577C50.9018 3.61721 51.4628 3.67516 52.0098 3.46044L51.6443 2.52961L51.2789 1.59877C51.28 1.59835 51.2878 1.59545 51.3015 1.59331C51.3154 1.59114 51.3311 1.5904 51.3471 1.59167C51.3817 1.59441 51.3928 1.60418 51.3746 1.59417L50.8919 2.46997ZM51.6443 2.52961L52.0098 3.46044L52.6236 3.21947L52.2581 2.28864L51.8927 1.3578L51.2789 1.59877L51.6443 2.52961ZM52.2581 2.28864L52.6236 3.21947L53.2374 2.9785L52.8719 2.04766L52.5065 1.11683L51.8927 1.3578L52.2581 2.28864ZM52.8719 2.04766L53.2374 2.9785C53.504 2.87384 53.7701 2.76153 54.0357 2.64163L53.6243 1.73017L53.2129 0.818712C52.977 0.925217 52.7415 1.02457 52.5065 1.11683L52.8719 2.04766ZM53.6243 1.73017L54.0357 2.64163L54.6495 2.36459L54.2381 1.45313L53.8267 0.54167L53.2129 0.818712L53.6243 1.73017ZM54.2381 1.45313L54.6495 2.36459L55.2633 2.08755L54.8519 1.17609L54.4405 0.264628L53.8267 0.54167L54.2381 1.45313ZM54.8519 1.17609L55.2633 2.08755C55.2557 2.091 55.2381 2.0978 55.2117 2.10239C55.1849 2.10707 55.1554 2.10831 55.1259 2.10528C55.0641 2.09893 55.0386 2.07823 55.0553 2.08921L55.6043 1.25339L56.1533 0.417576C55.6474 0.0852202 55.0356 -0.00395322 54.4405 0.264628L54.8519 1.17609ZM55.6043 1.25339L55.0553 2.08921L55.6691 2.49239L56.2181 1.65657L56.7671 0.820751L56.1533 0.417576L55.6043 1.25339ZM56.2181 1.65657L55.6691 2.49239L56.2829 2.89556L56.8319 2.05974L57.3809 1.22393L56.7671 0.820751L56.2181 1.65657ZM56.8319 2.05974L56.2829 2.89556C56.5372 3.06259 56.8476 3.182 57.2005 3.18471C57.5539 3.18743 57.8668 3.07242 58.1243 2.90722L57.5843 2.06552L57.0444 1.22382C57.0511 1.21951 57.1132 1.18398 57.2158 1.18477C57.3179 1.18555 57.3775 1.22163 57.3809 1.22393L56.8319 2.05974ZM57.5843 2.06552L58.1243 2.90722L58.7381 2.51347L58.1981 1.67177L57.6582 0.830069L57.0444 1.22382L57.5843 2.06552ZM58.1981 1.67177L58.7381 2.51347L59.3519 2.11971L58.8119 1.27802L58.272 0.436317L57.6582 0.830069L58.1981 1.67177ZM58.8119 1.27802L59.3519 2.11971C59.3819 2.10044 59.3801 2.10846 59.3496 2.11346C59.3349 2.11586 59.3182 2.11674 59.3011 2.11545C59.2841 2.11417 59.2715 2.11112 59.2645 2.10891L59.5643 1.15493L59.8642 0.200947C59.2909 0.0207431 58.7349 0.139356 58.272 0.436317L58.8119 1.27802ZM59.5643 1.15493L59.2645 2.10891L59.8783 2.30185L60.1781 1.34786L60.478 0.393878L59.8642 0.200947L59.5643 1.15493ZM60.1781 1.34786L59.8783 2.30185L60.4921 2.49478L60.7919 1.54079L61.0918 0.58681L60.478 0.393878L60.1781 1.34786ZM60.7919 1.54079L60.4921 2.49478C60.9431 2.63655 61.4079 2.63285 61.8564 2.48555L61.5443 1.53548L61.2323 0.585413C61.1792 0.602864 61.1423 0.602699 61.0918 0.58681L60.7919 1.54079ZM61.5443 1.53548L61.8564 2.48555L62.4702 2.28395L62.1581 1.33388L61.8461 0.383814L61.2323 0.585413L61.5443 1.53548ZM62.1581 1.33388L62.4702 2.28395L63.084 2.08235L62.7719 1.13228L62.4599 0.182214L61.8461 0.383814L62.1581 1.33388ZM62.7719 1.13228L63.084 2.08235C63.1202 2.07046 63.1415 2.06961 63.1845 2.08514L63.5243 1.14466L63.8642 0.204172C63.4056 0.0384626 62.9253 0.0293575 62.4599 0.182214L62.7719 1.13228ZM63.5243 1.14466L63.1845 2.08514L63.7983 2.30693L64.1381 1.36645L64.478 0.425962L63.8642 0.204172L63.5243 1.14466ZM64.1381 1.36645L63.7983 2.30693L64.4121 2.52872L64.7519 1.58824L65.0918 0.647752L64.478 0.425962L64.1381 1.36645ZM64.7519 1.58824L64.4121 2.52872C64.7884 2.6647 65.1814 2.72306 65.5823 2.6917L65.5043 1.69475L65.4263 0.69779C65.3257 0.705666 65.2171 0.693029 65.0918 0.647752L64.7519 1.58824ZM65.5043 1.69475L65.5823 2.6917L66.1961 2.64368L66.1181 1.64673L66.0401 0.649775L65.4263 0.69779L65.5043 1.69475ZM66.1181 1.64673L66.1961 2.64368L66.8099 2.59567L66.7319 1.59871L66.6539 0.601759L66.0401 0.649775L66.1181 1.64673ZM66.7319 1.59871L66.8099 2.59567C67.0471 2.57711 67.2843 2.56345 67.5214 2.55466L67.4843 1.55535L67.4473 0.556033C67.1828 0.565832 66.9184 0.581075 66.6539 0.601759L66.7319 1.59871ZM67.4843 1.55535L67.5214 2.55466L68.1352 2.53192L68.0981 1.53261L68.0611 0.533294L67.4473 0.556033L67.4843 1.55535ZM68.0981 1.53261L68.1352 2.53192L68.749 2.50919L68.7119 1.50987L68.6749 0.510556L68.0611 0.533294L68.0981 1.53261ZM68.7119 1.50987L68.749 2.50919C68.8857 2.50412 69.0273 2.52151 69.1779 2.56651L69.4643 1.60842L69.7508 0.650336C69.3997 0.545354 69.0397 0.497041 68.6749 0.510556L68.7119 1.50987ZM69.4643 1.60842L69.1779 2.56651L69.7917 2.75004L70.0781 1.79196L70.3646 0.83387L69.7508 0.650336L69.4643 1.60842ZM70.0781 1.79196L69.7917 2.75004L70.4055 2.93358L70.6919 1.97549L70.9784 1.0174L70.3646 0.83387L70.0781 1.79196ZM70.6919 1.97549L70.4055 2.93358C70.7739 3.04375 71.1531 3.08439 71.5363 3.04901L71.4443 2.05325L71.3524 1.05748C71.234 1.06841 71.1116 1.05722 70.9784 1.0174L70.6919 1.97549ZM71.4443 2.05325L71.5363 3.04901L72.1501 2.99235L72.0581 1.99658L71.9662 1.00082L71.3524 1.05748L71.4443 2.05325ZM72.0581 1.99658L72.1501 2.99235L72.7639 2.93568L72.6719 1.93991L72.58 0.944148L71.9662 1.00082L72.0581 1.99658ZM72.6719 1.93991L72.7639 2.93568C72.9497 2.91852 73.1352 2.91955 73.3213 2.93882L73.4243 1.94415L73.5273 0.949464C73.2118 0.916787 72.8957 0.915 72.58 0.944148L72.6719 1.93991ZM73.4243 1.94415L73.3213 2.93882L73.9351 3.00239L74.0381 2.00771L74.1411 1.01303L73.5273 0.949464L73.4243 1.94415ZM74.0381 2.00771L73.9351 3.00239L74.5489 3.06596L74.6519 2.07128L74.7549 1.0766L74.1411 1.01303L74.0381 2.00771ZM74.6519 2.07128L74.5489 3.06596C75.0064 3.11335 75.4448 3.01971 75.8454 2.82288L75.4043 1.92538L74.9633 1.02789C74.8623 1.07754 74.799 1.08117 74.7549 1.0766L74.6519 2.07128ZM75.4043 1.92538L75.8454 2.82288L76.4592 2.52126L76.0181 1.62377L75.5771 0.72627L74.9633 1.02789L75.4043 1.92538ZM76.0181 1.62377L76.4592 2.52126L77.073 2.21965L76.6319 1.32215L76.1909 0.424654L75.5771 0.72627L76.0181 1.62377ZM76.6319 1.32215L77.073 2.21965C77.0611 2.22548 77.0153 2.24293 76.9494 2.23906C76.886 2.23533 76.8548 2.21479 76.8642 2.22048L77.3843 1.36641L77.9045 0.512331C77.3797 0.192697 76.7668 0.141663 76.1909 0.424654L76.6319 1.32215ZM77.3843 1.36641L76.8642 2.22048L77.478 2.5943L77.9981 1.74023L78.5183 0.886151L77.9045 0.512331L77.3843 1.36641ZM77.9981 1.74023L77.478 2.5943L78.0918 2.96812L78.6119 2.11405L79.1321 1.25997L78.5183 0.886151L77.9981 1.74023ZM78.6119 2.11405L78.0918 2.96812C78.5281 3.23385 79.0392 3.35557 79.5777 3.23799L79.3643 2.26101L79.151 1.28403C79.153 1.28358 79.158 1.28278 79.1647 1.2827C79.1715 1.28262 79.1769 1.28331 79.1798 1.28389C79.1865 1.2852 79.1713 1.28383 79.1321 1.25997L78.6119 2.11405ZM79.3643 2.26101L79.5777 3.23799L80.1915 3.10395L79.9781 2.12697L79.7648 1.15L79.151 1.28403L79.3643 2.26101ZM79.9781 2.12697L80.1915 3.10395L80.8053 2.96992L80.5919 1.99294L80.3786 1.01596L79.7648 1.15L79.9781 2.12697ZM80.5919 1.99294L80.8053 2.96992C80.9251 2.94375 81.0397 2.94238 81.1573 2.96477L81.3443 1.98241L81.5314 1.00005C81.1474 0.926946 80.7604 0.932591 80.3786 1.01596L80.5919 1.99294ZM81.3443 1.98241L81.1573 2.96477L81.7711 3.08162L81.9581 2.09927L82.1452 1.11691L81.5314 1.00005L81.3443 1.98241ZM81.9581 2.09927L81.7711 3.08162L82.3849 3.19848L82.5719 2.21612L82.759 1.23377L82.1452 1.11691L81.9581 2.09927ZM82.5719 2.21612L82.3849 3.19848C82.7301 3.26421 83.0787 3.27956 83.4276 3.24333L83.3243 2.24868L83.221 1.25403C83.0683 1.26989 82.9153 1.26354 82.759 1.23377L82.5719 2.21612ZM83.3243 2.24868L83.4276 3.24333L84.0414 3.17959L83.9381 2.18494L83.8348 1.19029L83.221 1.25403L83.3243 2.24868ZM83.9381 2.18494L84.0414 3.17959L84.6552 3.11585L84.5519 2.1212L84.4486 1.12655L83.8348 1.19029L83.9381 2.18494ZM84.5519 2.1212L84.6552 3.11585C85.0543 3.07442 85.4318 2.94646 85.7835 2.75445L85.3043 1.87674L84.8251 0.999036C84.6752 1.08089 84.5512 1.1159 84.4486 1.12655L84.5519 2.1212ZM85.3043 1.87674L85.7835 2.75445L86.3973 2.41934L85.9181 1.54163L85.4389 0.663923L84.8251 0.999036L85.3043 1.87674ZM85.9181 1.54163L86.3973 2.41934L87.0111 2.08423L86.5319 1.20652L86.0527 0.32881L85.4389 0.663923L85.9181 1.54163ZM86.5319 1.20652L87.0111 2.08423C87.1247 2.02221 87.1965 2.01447 87.2413 2.0164L87.2843 1.01732L87.3273 0.0182491C86.8706 -0.00141597 86.4408 0.116966 86.0527 0.32881L86.5319 1.20652ZM87.2843 1.01732L87.2413 2.0164L87.8551 2.04283L87.8981 1.04375L87.9411 0.0446763L87.3273 0.0182491L87.2843 1.01732ZM87.8981 1.04375L87.8551 2.04283L88.4689 2.06925L88.5119 1.07018L88.555 0.0711035L87.9411 0.0446763L87.8981 1.04375ZM88.5119 1.07018L88.4689 2.06925C88.7369 2.08079 89.0049 2.0854 89.273 2.08308L89.2643 1.08312L89.2557 0.0831566C89.0221 0.0851781 88.7885 0.0811612 88.555 0.0711035L88.5119 1.07018ZM89.2643 1.08312L89.273 2.08308L89.8868 2.07777L89.8781 1.07781L89.8695 0.0778438L89.2557 0.0831566L89.2643 1.08312ZM89.8781 1.07781L89.8868 2.07777L90.5006 2.07246L90.4919 1.07249L90.4833 0.072531L89.8695 0.0778438L89.8781 1.07781ZM90.4919 1.07249L90.5006 2.07246C90.7627 2.07019 91.0248 2.06346 91.287 2.05228L91.2443 1.05319L91.2017 0.0540977C90.9622 0.0643142 90.7227 0.0704583 90.4833 0.072531L90.4919 1.07249ZM91.2443 1.05319L91.287 2.05228L91.9008 2.0261L91.8581 1.02701L91.8155 0.0279137L91.2017 0.0540977L91.2443 1.05319ZM91.8581 1.02701L91.9008 2.0261L92.5146 1.99991L92.4719 1.00082L92.4293 0.00172972L91.8155 0.0279137L91.8581 1.02701ZM92.4719 1.00082L92.5146 1.99991C92.4922 2.00087 92.4802 1.99571 92.4862 1.99803C92.4954 2.00161 92.5307 2.01742 92.5906 2.06653L93.2243 1.29295L93.858 0.519381C93.4741 0.204846 92.9903 -0.0222028 92.4293 0.00172972L92.4719 1.00082ZM93.2243 1.29295L92.5906 2.06653L93.2044 2.56935L93.8381 1.79578L94.4718 1.0222L93.858 0.519381L93.2243 1.29295ZM93.8381 1.79578L93.2044 2.56935L93.8182 3.07217L94.4519 2.2986L95.0856 1.52503L94.4718 1.0222L93.8381 1.79578ZM94.4519 2.2986L93.8182 3.07217C94.0558 3.2668 94.3681 3.43398 94.7476 3.46464C95.1358 3.49598 95.4795 3.37531 95.7538 3.19486L95.2043 2.35936L94.6548 1.52386C94.6784 1.50836 94.7713 1.46003 94.9086 1.47113C95.0374 1.48153 95.0989 1.53585 95.0856 1.52503L94.4519 2.2986ZM95.2043 2.35936L95.7538 3.19486L96.3676 2.79118L95.8181 1.95568L95.2686 1.12018L94.6548 1.52386L95.2043 2.35936ZM95.8181 1.95568L96.3676 2.79118L96.9814 2.3875L96.4319 1.552L95.8824 0.716495L95.2686 1.12018L95.8181 1.95568ZM96.4319 1.552L96.9814 2.3875C96.9823 2.38695 96.9298 2.42013 96.8357 2.42273C96.7398 2.42537 96.6787 2.39412 96.6682 2.38779L97.1843 1.53127L97.7005 0.674746C97.4391 0.51729 97.1273 0.413931 96.7806 0.423484C96.4357 0.432987 96.1324 0.552093 95.8824 0.716495L96.4319 1.552ZM97.1843 1.53127L96.6682 2.38779L97.282 2.75765L97.7981 1.90113L98.3143 1.04461L97.7005 0.674746L97.1843 1.53127ZM97.7981 1.90113L97.282 2.75765L97.8958 3.1275L98.4119 2.27099L98.9281 1.41447L98.3143 1.04461L97.7981 1.90113ZM98.4119 2.27099L97.8958 3.1275C98.3893 3.42486 98.968 3.50303 99.5369 3.27465L99.1643 2.34664L98.7918 1.41864C98.7964 1.41679 98.8086 1.41252 98.8275 1.40968C98.8466 1.4068 98.8675 1.40618 98.8882 1.40826C98.932 1.41267 98.9471 1.42596 98.9281 1.41447L98.4119 2.27099ZM99.1643 2.34664L99.5369 3.27465L100.151 3.02823L99.7781 2.10023L99.4056 1.17222L98.7918 1.41864L99.1643 2.34664ZM99.7781 2.10023L100.151 3.02823L100.765 2.78182L100.392 1.85381L100.02 0.9258L99.4056 1.17222L99.7781 2.10023ZM100.392 1.85381L100.765 2.78182C100.908 2.7243 101.035 2.70125 101.151 2.70058L101.145 1.7006L101.139 0.700612C100.753 0.702851 100.378 0.781942 100.02 0.9258L100.392 1.85381ZM101.145 1.7006L101.151 2.70058L101.764 2.69702L101.759 1.69704L101.753 0.697053L101.139 0.700612L101.145 1.7006ZM101.759 1.69704L101.764 2.69702L102.378 2.69346L102.372 1.69348L102.367 0.693493L101.753 0.697053L101.759 1.69704ZM102.372 1.69348L102.378 2.69346C102.542 2.69251 102.709 2.71252 102.881 2.7557L103.125 1.78588L103.369 0.81606C103.039 0.733127 102.704 0.691535 102.367 0.693493L102.372 1.69348ZM103.125 1.78588L102.881 2.7557L103.495 2.91002L103.739 1.9402L103.982 0.970382L103.369 0.81606L103.125 1.78588ZM103.739 1.9402L103.495 2.91002L104.108 3.06434L104.352 2.09452L104.596 1.1247L103.982 0.970382L103.739 1.9402ZM104.352 2.09452L104.108 3.06434C104.124 3.06819 104.069 3.05753 103.995 2.99356C103.913 2.9212 103.858 2.82498 103.835 2.73531L104.805 2.48993L105.774 2.24456C105.609 1.59333 105.098 1.25098 104.596 1.1247L104.352 2.09452ZM104.805 2.48993L103.835 2.73531L103.959 3.22613L104.929 2.98076L105.898 2.73539L105.774 2.24456L104.805 2.48993ZM104.929 2.98076L103.959 3.22613L104.084 3.71696L105.053 3.47158L106.023 3.22621L105.898 2.73539L104.929 2.98076ZM105.053 3.47158L104.084 3.71696C104.084 3.71755 104.087 3.72895 104.086 3.75583C104.085 3.78359 104.08 3.82793 104.063 3.89138L105.029 4.14861L105.995 4.40584C106.095 4.03171 106.124 3.62875 106.023 3.22621L105.053 3.47158ZM105.029 4.14861L104.063 3.89138L103.899 4.50518L104.866 4.76241L105.832 5.01964L105.995 4.40584L105.029 4.14861ZM104.866 4.76241L103.899 4.50518L103.736 5.11898L104.702 5.37621L105.669 5.63344L105.832 5.01964L104.866 4.76241ZM104.702 5.37621L103.736 5.11898C103.669 5.37106 103.602 5.62313 103.536 5.87521L104.504 6.12861L105.471 6.38202C105.536 6.13249 105.602 5.88297 105.669 5.63344L104.702 5.37621ZM104.504 6.12861L103.536 5.87521L103.376 6.48901L104.343 6.74241L105.31 6.99582L105.471 6.38202L104.504 6.12861ZM104.343 6.74241L103.376 6.48901L103.215 7.10281L104.182 7.35621L105.149 7.60962L105.31 6.99582L104.343 6.74241ZM104.182 7.35621L103.215 7.10281C103.13 7.42523 103.083 7.75208 103.074 8.08198L104.074 8.10861L105.073 8.13525C105.078 7.96354 105.103 7.78879 105.149 7.60962L104.182 7.35621ZM104.074 8.10861L103.074 8.08198L103.058 8.69578L104.057 8.72241L105.057 8.74905L105.073 8.13525L104.074 8.10861ZM104.057 8.72241L103.058 8.69578L103.041 9.30958L104.041 9.33621L105.04 9.36285L105.057 8.74905L104.057 8.72241ZM104.041 9.33621L103.041 9.30958C103.03 9.72758 103.122 10.1292 103.294 10.5048L104.203 10.0886L105.112 9.67249C105.055 9.54646 105.038 9.44644 105.04 9.36285L104.041 9.33621ZM104.203 10.0886L103.294 10.5048L103.575 11.1186L104.484 10.7024L105.393 10.2863L105.112 9.67249L104.203 10.0886ZM104.484 10.7024L103.575 11.1186L103.855 11.7324L104.765 11.3162L105.674 10.9001L105.393 10.2863L104.484 10.7024ZM104.765 11.3162L103.855 11.7324C103.858 11.7379 103.857 11.7366 103.855 11.7288C103.853 11.7208 103.851 11.7093 103.851 11.6955C103.851 11.6818 103.853 11.6701 103.855 11.6618C103.857 11.6538 103.858 11.6521 103.856 11.6572L104.767 12.0686L105.679 12.4801C105.911 11.9653 105.909 11.4128 105.674 10.9001L104.765 11.3162ZM104.767 12.0686L103.856 11.6572L103.579 12.271L104.49 12.6824L105.401 13.0939L105.679 12.4801L104.767 12.0686ZM104.49 12.6824L103.579 12.271L103.301 12.8848L104.213 13.2962L105.124 13.7077L105.401 13.0939L104.49 12.6824ZM104.213 13.2962L103.301 12.8848C103.037 13.471 103.115 14.0771 103.438 14.5852L104.282 14.0486L105.126 13.5121C105.116 13.4967 105.136 13.5216 105.141 13.5806C105.147 13.6431 105.132 13.6904 105.124 13.7077L104.213 13.2962ZM104.282 14.0486L103.438 14.5852L103.829 15.199L104.673 14.6624L105.516 14.1259L105.126 13.5121L104.282 14.0486ZM104.673 14.6624L103.829 15.199L104.219 15.8128L105.063 15.2762L105.907 14.7397L105.516 14.1259L104.673 14.6624ZM105.063 15.2762L104.219 15.8128C104.305 15.9484 104.326 16.0403 104.33 16.0964L105.328 16.0286L106.325 15.9608C106.295 15.5154 106.14 15.1057 105.907 14.7397L105.063 15.2762ZM105.328 16.0286L104.33 16.0964L104.372 16.7102L105.369 16.6424L106.367 16.5746L106.325 15.9608L105.328 16.0286ZM105.369 16.6424L104.372 16.7102L104.413 17.324L105.411 17.2562L106.409 17.1884L106.367 16.5746L105.369 16.6424ZM105.411 17.2562L104.413 17.324C104.431 17.5836 104.452 17.8432 104.477 18.1027L105.472 18.0086L106.468 17.9146C106.445 17.6725 106.425 17.4304 106.409 17.1884L105.411 17.2562ZM105.472 18.0086L104.477 18.1027L104.535 18.7165L105.53 18.6224L106.526 18.5284L106.468 17.9146L105.472 18.0086ZM105.53 18.6224L104.535 18.7165L104.593 19.3303L105.588 19.2362L106.584 19.1422L106.526 18.5284L105.53 18.6224ZM105.588 19.2362L104.593 19.3303C104.601 19.4211 104.591 19.5204 104.546 19.6386L105.483 19.9886L106.42 20.3387C106.563 19.9553 106.623 19.5529 106.584 19.1422L105.588 19.2362ZM105.483 19.9886L104.546 19.6386L104.317 20.2524L105.254 20.6024L106.191 20.9525L106.42 20.3387L105.483 19.9886ZM105.254 20.6024L104.317 20.2524L104.088 20.8662L105.024 21.2162L105.961 21.5663L106.191 20.9525L105.254 20.6024ZM105.024 21.2162L104.088 20.8662C103.941 21.2593 103.886 21.6728 103.939 22.0936L104.931 21.9686L105.923 21.8437C105.913 21.7629 105.921 21.6748 105.961 21.5663L105.024 21.2162ZM104.931 21.9686L103.939 22.0936L104.016 22.7074L105.009 22.5824L106.001 22.4575L105.923 21.8437L104.931 21.9686ZM105.009 22.5824L104.016 22.7074L104.094 23.3212L105.086 23.1962L106.078 23.0713L106.001 22.4575L105.009 22.5824ZM105.086 23.1962L104.094 23.3212C104.121 23.5393 104.138 23.757 104.143 23.9743L105.143 23.9486L106.143 23.923C106.135 23.6387 106.114 23.3548 106.078 23.0713L105.086 23.1962ZM105.143 23.9486L104.143 23.9743L104.159 24.5881L105.159 24.5624L106.158 24.5368L106.143 23.923L105.143 23.9486ZM105.159 24.5624L104.159 24.5881L104.175 25.2019L105.174 25.1762L106.174 25.1506L106.158 24.5368L105.159 24.5624ZM105.174 25.1762L104.175 25.2019C104.178 25.3207 104.159 25.4479 104.108 25.5891L105.048 25.9286L105.989 26.2682C106.119 25.9078 106.184 25.5334 106.174 25.1506L105.174 25.1762ZM105.048 25.9286L104.108 25.5891L103.886 26.2029L104.827 26.5424L105.767 26.882L105.989 26.2682L105.048 25.9286ZM104.827 26.5424L103.886 26.2029L103.665 26.8167L104.605 27.1562L105.546 27.4958L105.767 26.882L104.827 26.5424ZM104.605 27.1562L103.665 26.8167C103.555 27.1203 103.473 27.4282 103.419 27.7399L104.405 27.9086L105.391 28.0774C105.423 27.8874 105.474 27.6937 105.546 27.4958L104.605 27.1562ZM104.405 27.9086L103.419 27.7399L103.314 28.3537L104.3 28.5224L105.286 28.6912L105.391 28.0774L104.405 27.9086ZM104.3 28.5224L103.314 28.3537L103.209 28.9675L104.195 29.1362L105.18 29.305L105.286 28.6912L104.3 28.5224ZM104.195 29.1362L103.209 28.9675C103.149 29.3169 103.142 29.6689 103.189 30.0201L104.18 29.8886L105.172 29.7571C105.152 29.6067 105.154 29.4571 105.18 29.305L104.195 29.1362ZM104.18 29.8886L103.189 30.0201L103.27 30.6339L104.262 30.5024L105.253 30.3709L105.172 29.7571L104.18 29.8886ZM104.262 30.5024L103.27 30.6339L103.352 31.2477L104.343 31.1162L105.334 30.9847L105.253 30.3709L104.262 30.5024ZM104.343 31.1162L103.352 31.2477C103.389 31.5296 103.44 31.8107 103.504 32.091L104.479 31.8686L105.454 31.6463C105.403 31.425 105.364 31.2045 105.334 30.9847L104.343 31.1162ZM104.479 31.8686L103.504 32.091L103.644 32.7048L104.619 32.4824L105.594 32.2601L105.454 31.6463L104.479 31.8686ZM104.619 32.4824L103.644 32.7048L103.784 33.3186L104.759 33.0962L105.734 32.8739L105.594 32.2601L104.619 32.4824ZM104.759 33.0962L103.784 33.3186C103.783 33.3132 103.774 33.2755 103.778 33.214C103.781 33.1496 103.797 33.0568 103.848 32.9551C103.964 32.7238 104.155 32.6349 104.236 32.6108L104.522 33.5689L104.809 34.5269C105.104 34.4386 105.442 34.2388 105.637 33.8499C105.818 33.4872 105.791 33.1241 105.734 32.8739L104.759 33.0962ZM104.522 33.5689L104.236 32.6108L103.71 32.7681L103.997 33.7262L104.283 34.6842L104.809 34.5269L104.522 33.5689ZM103.997 33.7262L103.71 32.7681L103.184 32.9255L103.471 33.8835L103.757 34.8415L104.283 34.6842L103.997 33.7262ZM103.471 33.8835L103.184 32.9255C103.01 32.9777 102.813 33.0243 102.595 33.0638L102.772 34.0479L102.95 35.032C103.233 34.9809 103.502 34.9178 103.757 34.8415L103.471 33.8835ZM102.772 34.0479L102.595 33.0638L101.981 33.1747L102.159 34.1588L102.336 35.1428L102.95 35.032L102.772 34.0479ZM102.159 34.1588L101.981 33.1747L101.367 33.2856L101.545 34.2697L101.723 35.2537L102.336 35.1428L102.159 34.1588ZM101.545 34.2697L101.367 33.2856C101.303 33.2971 101.235 33.2943 101.144 33.2602L100.792 34.1963L100.441 35.1324C100.851 35.2867 101.285 35.3328 101.723 35.2537L101.545 34.2697ZM100.792 34.1963L101.144 33.2602L100.53 33.0295L100.179 33.9656L99.8264 34.9017L100.441 35.1324L100.792 34.1963ZM100.179 33.9656L100.53 33.0295L99.9161 32.7989L99.5643 33.735L99.2126 34.6711L99.8264 34.9017L100.179 33.9656ZM99.5643 33.735L99.9161 32.7989C99.5441 32.6591 99.155 32.5939 98.7565 32.6161L98.8119 33.6145L98.8674 34.613C98.9705 34.6072 99.0829 34.6224 99.2126 34.6711L99.5643 33.735ZM98.8119 33.6145L98.7565 32.6161L98.1427 32.6501L98.1981 33.6486L98.2536 34.6471L98.8674 34.613L98.8119 33.6145ZM98.1981 33.6486L98.1427 32.6501L97.5289 32.6842L97.5843 33.6827L97.6398 34.6811L98.2536 34.6471L98.1981 33.6486ZM97.5843 33.6827L97.5289 32.6842C97.3851 32.6922 97.2382 32.6779 97.0846 32.6378L96.8319 33.6053L96.5792 34.5729C96.9273 34.6638 97.282 34.701 97.6398 34.6811L97.5843 33.6827ZM96.8319 33.6053L97.0846 32.6378L96.4708 32.4775L96.2181 33.445L95.9654 34.4126L96.5792 34.5729L96.8319 33.6053ZM96.2181 33.445L96.4708 32.4775L95.857 32.3172L95.6043 33.2847L95.3516 34.2523L95.9654 34.4126L96.2181 33.445ZM95.6043 33.2847L95.857 32.3172C95.247 32.1578 94.687 32.342 94.2495 32.6722L94.8519 33.4704L95.4543 34.2686C95.4945 34.2382 95.4989 34.2452 95.4677 34.2529C95.4521 34.2567 95.4319 34.2596 95.409 34.2594C95.3861 34.2593 95.3664 34.2561 95.3516 34.2523L95.6043 33.2847ZM94.8519 33.4704L94.2495 32.6722L93.6357 33.1354L94.2381 33.9336L94.8405 34.7318L95.4543 34.2686L94.8519 33.4704ZM94.2381 33.9336L93.6357 33.1354L93.0219 33.5987L93.6243 34.3969L94.2267 35.195L94.8405 34.7318L94.2381 33.9336ZM93.6243 34.3969L93.0219 33.5987C92.9724 33.636 92.9513 33.6407 92.9588 33.6384C92.9627 33.6372 92.9716 33.6351 92.9842 33.6341C92.997 33.6331 93.0096 33.6337 93.0205 33.6354L92.8719 34.6243L92.7234 35.6132C93.3006 35.6999 93.8159 35.5051 94.2267 35.195L93.6243 34.3969ZM92.8719 34.6243L93.0205 33.6354L92.4067 33.5432L92.2581 34.5321L92.1096 35.521L92.7234 35.6132L92.8719 34.6243ZM92.2581 34.5321L92.4067 33.5432L91.7929 33.451L91.6443 34.4399L91.4958 35.4288L92.1096 35.521L92.2581 34.5321ZM91.6443 34.4399L91.7929 33.451C91.5824 33.4193 91.3705 33.3744 91.157 33.3157L90.8919 34.2799L90.6268 35.2441C90.915 35.3234 91.2047 35.385 91.4958 35.4288L91.6443 34.4399ZM90.8919 34.2799L91.157 33.3157L90.5432 33.1469L90.2781 34.1112L90.013 35.0754L90.6268 35.2441L90.8919 34.2799ZM90.2781 34.1112L90.5432 33.1469L89.9294 32.9782L89.6643 33.9424L89.3992 34.9066L90.013 35.0754L90.2781 34.1112ZM89.6643 33.9424L89.9294 32.9782C89.4798 32.8546 89.0228 32.8726 88.5853 33.0238L88.9119 33.969L89.2385 34.9141C89.3027 34.892 89.3472 34.8923 89.3992 34.9066L89.6643 33.9424ZM88.9119 33.969L88.5853 33.0238L87.9715 33.2359L88.2981 34.1811L88.6247 35.1262L89.2385 34.9141L88.9119 33.969ZM88.2981 34.1811L87.9715 33.2359L87.3577 33.448L87.6843 34.3932L88.0109 35.3383L88.6247 35.1262L88.2981 34.1811ZM87.6843 34.3932L87.3577 33.448C87.3534 33.4486 87.3532 33.4496 87.3577 33.448C87.3622 33.4474 87.3679 33.4476 87.3739 33.448C87.3798 33.4483 87.3828 33.4492 87.3821 33.449C87.3813 33.4488 87.3749 33.447 87.3627 33.4412L86.9319 34.3436L86.5012 35.2461C86.9766 35.473 87.4991 35.5152 88.0109 35.3383L87.6843 34.3932ZM86.9319 34.3436L87.3627 33.4412L86.7489 33.1482L86.3181 34.0506L85.8874 34.9531L86.5012 35.2461L86.9319 34.3436ZM86.3181 34.0506L86.7489 33.1482L86.1351 32.8552L85.7043 33.7576L85.2736 34.6601L85.8874 34.9531L86.3181 34.0506ZM85.7043 33.7576L86.1351 32.8552C85.7803 32.6858 85.4041 32.5808 85.0116 32.5574L84.9519 33.5556L84.8923 34.5538C85.0013 34.5603 85.1268 34.59 85.2736 34.6601L85.7043 33.7576ZM84.9519 33.5556L85.0116 32.5574L84.3978 32.5207L84.3381 33.5189L84.2785 34.5171L84.8923 34.5538L84.9519 33.5556ZM84.3381 33.5189L84.3978 32.5207L83.784 32.484L83.7243 33.4822L83.6647 34.4804L84.2785 34.5171L84.3381 33.5189ZM83.7243 33.4822L83.784 32.484C83.4191 32.4622 83.0579 32.5025 82.7046 32.6005L82.9719 33.5641L83.2392 34.5277C83.3876 34.4865 83.528 34.4722 83.6647 34.4804L83.7243 33.4822ZM82.9719 33.5641L82.7046 32.6005L82.0908 32.7707L82.3581 33.7344L82.6254 34.698L83.2392 34.5277L82.9719 33.5641ZM82.3581 33.7344L82.0908 32.7707L81.477 32.941L81.7443 33.9046L82.0116 34.8682L82.6254 34.698L82.3581 33.7344ZM81.7443 33.9046L81.477 32.941C81.2213 33.012 80.9656 33.085 80.71 33.1601L80.9919 34.1196L81.2739 35.079C81.5198 35.0067 81.7658 34.9365 82.0116 34.8682L81.7443 33.9046ZM80.9919 34.1196L80.71 33.1601L80.0962 33.3405L80.3781 34.2999L80.6601 35.2594L81.2739 35.079L80.9919 34.1196ZM80.3781 34.2999L80.0962 33.3405L79.4824 33.5209L79.7643 34.4803L80.0463 35.4397L80.6601 35.2594L80.3781 34.2999ZM79.7643 34.4803L79.4824 33.5209C79.3536 33.5587 79.2355 33.5682 79.1207 33.5556L79.0119 34.5497L78.9031 35.5438C79.2899 35.5861 79.6735 35.5493 80.0463 35.4397L79.7643 34.4803ZM79.0119 34.5497L79.1207 33.5556L78.5069 33.4884L78.3981 34.4825L78.2893 35.4766L78.9031 35.5438L79.0119 34.5497ZM78.3981 34.4825L78.5069 33.4884L77.8931 33.4212L77.7843 34.4153L77.6755 35.4094L78.2893 35.4766L78.3981 34.4825ZM77.7843 34.4153L77.8931 33.4212C77.704 33.4005 77.512 33.3618 77.3165 33.3038L77.0319 34.2625L76.7474 35.2211C77.0535 35.312 77.363 35.3752 77.6755 35.4094L77.7843 34.4153ZM77.0319 34.2625L77.3165 33.3038L76.7027 33.1216L76.4181 34.0803L76.1336 35.0389L76.7474 35.2211L77.0319 34.2625ZM76.4181 34.0803L76.7027 33.1216L76.0889 32.9394L75.8043 33.8981L75.5198 34.8567L76.1336 35.0389L76.4181 34.0803ZM75.8043 33.8981L76.0889 32.9394C75.6576 32.8114 75.2139 32.8078 74.7804 32.9301L75.0519 33.8926L75.3235 34.855C75.3915 34.8358 75.4495 34.8359 75.5198 34.8567L75.8043 33.8981ZM75.0519 33.8926L74.7804 32.9301L74.1666 33.1033L74.4381 34.0657L74.7097 35.0282L75.3235 34.855L75.0519 33.8926ZM74.4381 34.0657L74.1666 33.1033L73.5528 33.2765L73.8243 34.2389L74.0959 35.2013L74.7097 35.0282L74.4381 34.0657ZM73.8243 34.2389L73.5528 33.2765C73.5134 33.2876 73.4809 33.2891 73.4237 33.2676L73.0719 34.2037L72.7202 35.1398C73.1646 35.3068 73.6337 35.3317 74.0959 35.2013L73.8243 34.2389ZM73.0719 34.2037L73.4237 33.2676L72.8099 33.0369L72.4581 33.973L72.1064 34.9091L72.7202 35.1398L73.0719 34.2037ZM72.4581 33.973L72.8099 33.0369L72.1961 32.8063L71.8443 33.7424L71.4926 34.6784L72.1064 34.9091L72.4581 33.973ZM71.8443 33.7424L72.1961 32.8063C71.9099 32.6987 71.6216 32.6089 71.3313 32.5373L71.0919 33.5083L70.8526 34.4792C71.0639 34.5313 71.2772 34.5975 71.4926 34.6784L71.8443 33.7424ZM71.0919 33.5083L71.3313 32.5373L70.7175 32.386L70.4781 33.357L70.2388 34.3279L70.8526 34.4792L71.0919 33.5083ZM70.4781 33.357L70.7175 32.386L70.1037 32.2347L69.8643 33.2057L69.625 34.1766L70.2388 34.3279L70.4781 33.357ZM69.8643 33.2057L70.1037 32.2347C69.6583 32.1249 69.2093 32.151 68.7807 32.3014L69.1119 33.245L69.4432 34.1885C69.5161 34.1629 69.5687 34.1627 69.625 34.1766L69.8643 33.2057ZM69.1119 33.245L68.7807 32.3014L68.1669 32.5169L68.4981 33.4605L68.8294 34.404L69.4432 34.1885L69.1119 33.245ZM68.4981 33.4605L68.1669 32.5169L67.5531 32.7324L67.8843 33.6759L68.2156 34.6195L68.8294 34.404L68.4981 33.4605ZM67.8843 33.6759L67.5531 32.7324C67.2936 32.8235 67.0342 32.9186 66.775 33.0176L67.1319 33.9517L67.4888 34.8859C67.7312 34.7933 67.9735 34.7045 68.2156 34.6195L67.8843 33.6759ZM67.1319 33.9517L66.775 33.0176L66.1612 33.2521L66.5181 34.1863L66.875 35.1204L67.4888 34.8859L67.1319 33.9517ZM66.5181 34.1863L66.1612 33.2521L65.5474 33.4867L65.9043 34.4208L66.2612 35.3549L66.875 35.1204L66.5181 34.1863ZM65.9043 34.4208L65.5474 33.4867C65.4475 33.5248 65.3703 33.5299 65.2997 33.5193L65.1519 34.5083L65.0042 35.4974C65.4352 35.5617 65.8595 35.5084 66.2612 35.3549L65.9043 34.4208ZM65.1519 34.5083L65.2997 33.5193L64.6859 33.4276L64.5381 34.4167L64.3904 35.4057L65.0042 35.4974L65.1519 34.5083ZM64.5381 34.4167L64.6859 33.4276L64.0721 33.3359L63.9243 34.325L63.7766 35.314L64.3904 35.4057L64.5381 34.4167ZM63.9243 34.325L64.0721 33.3359C63.9281 33.3144 63.7721 33.2677 63.6022 33.1868L63.1719 34.0895L62.7416 34.9922C63.0734 35.1503 63.419 35.2606 63.7766 35.314L63.9243 34.325ZM63.1719 34.0895L63.6022 33.1868L62.9884 32.8942L62.5581 33.7969L62.1278 34.6996L62.7416 34.9922L63.1719 34.0895ZM62.5581 33.7969L62.9884 32.8942L62.3746 32.6016L61.9443 33.5043L61.5141 34.407L62.1278 34.6996L62.5581 33.7969ZM61.9443 33.5043L62.3746 32.6016C61.8163 32.3355 61.2211 32.3723 60.699 32.6681L61.1919 33.5382L61.6849 34.4082C61.6936 34.4033 61.667 34.4197 61.6131 34.4221C61.5576 34.4246 61.5207 34.4102 61.5141 34.407L61.9443 33.5043ZM61.1919 33.5382L60.699 32.6681L60.0852 33.0159L60.5781 33.8859L61.0711 34.756L61.6849 34.4082L61.1919 33.5382ZM60.5781 33.8859L60.0852 33.0159L59.4714 33.3637L59.9643 34.2337L60.4573 35.1038L61.0711 34.756L60.5781 33.8859ZM59.9643 34.2337L59.4714 33.3637C59.4858 33.3555 59.5465 33.3279 59.637 33.3323C59.7246 33.3366 59.7707 33.3675 59.7654 33.364L59.2119 34.1969L58.6584 35.0297C58.904 35.1929 59.2008 35.3133 59.5392 35.3299C59.8805 35.3466 60.1921 35.2541 60.4573 35.1038L59.9643 34.2337ZM59.2119 34.1969L59.7654 33.364L59.1516 32.9561L58.5981 33.789L58.0446 34.6218L58.6584 35.0297L59.2119 34.1969ZM58.5981 33.789L59.1516 32.9561L58.5378 32.5482L57.9843 33.3811L57.4308 34.2139L58.0446 34.6218L58.5981 33.789ZM57.9843 33.3811L58.5378 32.5482C58.1669 32.3017 57.7445 32.1365 57.2807 32.1139L57.2319 33.1127L57.1831 34.1115C57.2209 34.1133 57.3002 34.1271 57.4308 34.2139L57.9843 33.3811ZM57.2319 33.1127L57.2807 32.1139L56.6669 32.0839L56.6181 33.0827L56.5693 34.0815L57.1831 34.1115L57.2319 33.1127ZM56.6181 33.0827L56.6669 32.0839L56.0531 32.0539L56.0043 33.0527L55.9555 34.0515L56.5693 34.0815L56.6181 33.0827ZM56.0043 33.0527L56.0531 32.0539C55.7821 32.0407 55.511 32.0357 55.2399 32.039L55.2519 33.0389L55.264 34.0388C55.4945 34.036 55.725 34.0403 55.9555 34.0515L56.0043 33.0527ZM55.2519 33.0389L55.2399 32.039L54.6261 32.0464L54.6381 33.0463L54.6502 34.0462L55.264 34.0388L55.2519 33.0389ZM54.6381 33.0463L54.6261 32.0464L54.0123 32.0538L54.0243 33.0537L54.0364 34.0536L54.6502 34.0462L54.6381 33.0463ZM54.0243 33.0537L54.0123 32.0538C53.676 32.0578 53.3431 32.1046 53.0152 32.1917L53.2719 33.1582L53.5287 34.1247C53.7024 34.0785 53.8711 34.0556 54.0364 34.0536L54.0243 33.0537ZM53.2719 33.1582L53.0152 32.1917L52.4014 32.3548L52.6581 33.3213L52.9149 34.2877L53.5287 34.1247L53.2719 33.1582ZM52.6581 33.3213L52.4014 32.3548L51.7876 32.5178L52.0443 33.4843L52.3011 34.4508L52.9149 34.2877L52.6581 33.3213ZM52.0443 33.4843L51.7876 32.5178C51.6736 32.5481 51.5687 32.552 51.463 32.5337L51.2919 33.5189L51.1208 34.5042C51.5168 34.5729 51.9135 34.5538 52.3011 34.4508L52.0443 33.4843ZM51.2919 33.5189L51.463 32.5337L50.8492 32.4271L50.6781 33.4123L50.507 34.3976L51.1208 34.5042L51.2919 33.5189ZM50.6781 33.4123L50.8492 32.4271L50.2354 32.3205L50.0643 33.3057L49.8932 34.291L50.507 34.3976L50.6781 33.4123ZM50.0643 33.3057L50.2354 32.3205C49.9162 32.265 49.5948 32.2433 49.2726 32.256L49.3119 33.2552L49.3513 34.2544C49.5306 34.2474 49.7109 34.2593 49.8932 34.291L50.0643 33.3057ZM49.3119 33.2552L49.2726 32.256L48.6588 32.2802L48.6981 33.2794L48.7375 34.2786L49.3513 34.2544L49.3119 33.2552ZM48.6981 33.2794L48.6588 32.2802L48.045 32.3043L48.0843 33.3036L48.1237 34.3028L48.7375 34.2786L48.6981 33.2794ZM48.0843 33.3036L48.045 32.3043C47.8177 32.3133 47.5904 32.3142 47.3632 32.3071L47.3319 33.3066L47.3007 34.3061C47.575 34.3147 47.8494 34.3136 48.1237 34.3028L48.0843 33.3036ZM47.3319 33.3066L47.3632 32.3071L46.7494 32.2879L46.7181 33.2874L46.6869 34.2869L47.3007 34.3061L47.3319 33.3066ZM46.7181 33.2874L46.7494 32.2879L46.1356 32.2687L46.1043 33.2682L46.0731 34.2677L46.6869 34.2869L46.7181 33.2874ZM46.1043 33.2682L46.1356 32.2687C45.6762 32.2544 45.2462 32.3802 44.8602 32.5982L45.3519 33.4689L45.8437 34.3397C45.9592 34.2744 46.0308 34.2664 46.0731 34.2677L46.1043 33.2682ZM45.3519 33.4689L44.8602 32.5982L44.2464 32.9449L44.7381 33.8156L45.2299 34.6863L45.8437 34.3397L45.3519 33.4689ZM44.7381 33.8156L44.2464 32.9449L43.6326 33.2915L44.1243 34.1623L44.6161 35.033L45.2299 34.6863L44.7381 33.8156ZM44.1243 34.1623L43.6326 33.2915C43.6081 33.3054 43.6112 33.2985 43.6375 33.2956C43.6497 33.2942 43.6626 33.2942 43.6747 33.2956C43.6866 33.297 43.694 33.2993 43.6957 33.2999L43.3719 34.246L43.0482 35.1921C43.5943 35.379 44.1409 35.3014 44.6161 35.033L44.1243 34.1623ZM43.3719 34.246L43.6957 33.2999L43.0819 33.0898L42.7581 34.036L42.4344 34.9821L43.0482 35.1921L43.3719 34.246ZM42.7581 34.036L43.0819 33.0898L42.4681 32.8798L42.1443 33.8259L41.8206 34.7721L42.4344 34.9821L42.7581 34.036ZM42.1443 33.8259L42.4681 32.8798C42.1837 32.7825 41.8977 32.7015 41.61 32.6372L41.3919 33.6131L41.1738 34.5891C41.3878 34.6369 41.6033 34.6978 41.8206 34.7721L42.1443 33.8259ZM41.3919 33.6131L41.61 32.6372L40.9962 32.5L40.7781 33.476L40.56 34.4519L41.1738 34.5891L41.3919 33.6131ZM40.7781 33.476L40.9962 32.5L40.3824 32.3629L40.1643 33.3388L39.9462 34.3147L40.56 34.4519L40.7781 33.476ZM40.1643 33.3388L40.3824 32.3629C40.0484 32.2882 39.7101 32.2571 39.3699 32.2714L39.4119 33.2705L39.454 34.2697C39.6154 34.2629 39.7787 34.2773 39.9462 34.3147L40.1643 33.3388ZM39.4119 33.2705L39.3699 32.2714L38.7561 32.2973L38.7981 33.2964L38.8402 34.2955L39.454 34.2697L39.4119 33.2705ZM38.7981 33.2964L38.7561 32.2973L38.1423 32.3231L38.1843 33.3222L38.2264 34.3213L38.8402 34.2955L38.7981 33.2964ZM38.1843 33.3222L38.1423 32.3231C37.7054 32.3415 37.298 32.4779 36.9287 32.6929L37.4319 33.5571L37.9351 34.4213C38.0675 34.3442 38.1617 34.324 38.2264 34.3213L38.1843 33.3222ZM37.4319 33.5571L36.9287 32.6929L36.3149 33.0503L36.8181 33.9145L37.3213 34.7787L37.9351 34.4213L37.4319 33.5571ZM36.8181 33.9145L36.3149 33.0503L35.7011 33.4077L36.2043 34.2719L36.7075 35.1361L37.3213 34.7787L36.8181 33.9145ZM36.2043 34.2719L35.7011 33.4077C35.6799 33.4201 35.6896 33.4099 35.7251 33.4062C35.7417 33.4045 35.7588 33.4048 35.7745 33.407C35.7901 33.4091 35.7999 33.4124 35.8031 33.4136L35.4519 34.3499L35.1007 35.2862C35.6585 35.4953 36.2219 35.4188 36.7075 35.1361L36.2043 34.2719ZM35.4519 34.3499L35.8031 33.4136L35.1893 33.1833L34.8381 34.1196L34.4869 35.0559L35.1007 35.2862L35.4519 34.3499ZM34.8381 34.1196L35.1893 33.1833L34.5755 32.9531L34.2243 33.8894L33.8731 34.8257L34.4869 35.0559L34.8381 34.1196ZM34.2243 33.8894L34.5755 32.9531C34.1337 32.7874 33.6673 32.7609 33.2069 32.8874L33.4719 33.8517L33.7369 34.8159C33.7781 34.8046 33.8134 34.8033 33.8731 34.8257L34.2243 33.8894ZM33.4719 33.8517L33.2069 32.8874L32.5931 33.0561L32.8581 34.0204L33.1231 34.9846L33.7369 34.8159L33.4719 33.8517ZM32.8581 34.0204L32.5931 33.0561L31.9793 33.2248L32.2443 34.189L32.5093 35.1533L33.1231 34.9846L32.8581 34.0204ZM32.2443 34.189L31.9793 33.2248C31.885 33.2507 31.8009 33.252 31.7123 33.232L31.4919 34.2074L31.2716 35.1829C31.6846 35.2761 32.102 35.2652 32.5093 35.1533L32.2443 34.189ZM31.4919 34.2074L31.7123 33.232L31.0985 33.0934L30.8781 34.0688L30.6578 35.0442L31.2716 35.1829L31.4919 34.2074ZM30.8781 34.0688L31.0985 33.0934L30.4847 32.9547L30.2643 33.9301L30.044 34.9056L30.6578 35.0442L30.8781 34.0688ZM30.2643 33.9301L30.4847 32.9547C30.0953 32.8668 29.7002 32.8629 29.3091 32.9439L29.5119 33.9231L29.7147 34.9023C29.8253 34.8794 29.9318 34.8802 30.044 34.9056L30.2643 33.9301ZM29.5119 33.9231L29.3091 32.9439L28.6953 33.071L28.8981 34.0502L29.1009 35.0294L29.7147 34.9023L29.5119 33.9231ZM28.8981 34.0502L28.6953 33.071L28.0815 33.1981L28.2843 34.1773L28.4871 35.1566L29.1009 35.0294L28.8981 34.0502ZM28.2843 34.1773L28.0815 33.1981C27.9157 33.2325 27.7535 33.244 27.5928 33.2342L27.5319 34.2323L27.4711 35.2305C27.8119 35.2512 28.1514 35.2261 28.4871 35.1566L28.2843 34.1773ZM27.5319 34.2323L27.5928 33.2342L26.979 33.1968L26.9181 34.1949L26.8573 35.1931L27.4711 35.2305L27.5319 34.2323ZM26.9181 34.1949L26.979 33.1968L26.3652 33.1594L26.3043 34.1575L26.2435 35.1557L26.8573 35.1931L26.9181 34.1949ZM26.3043 34.1575L26.3652 33.1594C26.0203 33.1384 25.6772 33.1658 25.3383 33.24L25.5519 34.2169L25.7656 35.1938C25.9283 35.1582 26.0867 35.1461 26.2435 35.1557L26.3043 34.1575ZM25.5519 34.2169L25.3383 33.24L24.7245 33.3742L24.9381 34.3511L25.1518 35.328L25.7656 35.1938L25.5519 34.2169ZM24.9381 34.3511L24.7245 33.3742L24.1107 33.5084L24.3243 34.4853L24.538 35.4622L25.1518 35.328L24.9381 34.3511ZM24.3243 34.4853L24.1107 33.5084C24.0121 33.53 23.918 33.5288 23.8161 33.5032L23.5719 34.4729L23.3278 35.4426C23.7274 35.5432 24.1349 35.5504 24.538 35.4622L24.3243 34.4853ZM23.5719 34.4729L23.8161 33.5032L23.2023 33.3486L22.9581 34.3184L22.714 35.2881L23.3278 35.4426L23.5719 34.4729ZM22.9581 34.3184L23.2023 33.3486L22.5885 33.1941L22.3443 34.1638L22.1002 35.1336L22.714 35.2881L22.9581 34.3184ZM22.3443 34.1638L22.5885 33.1941C22.1839 33.0922 21.7716 33.0881 21.3649 33.1829L21.5919 34.1568L21.8189 35.1307C21.9139 35.1086 22.0032 35.1092 22.1002 35.1336L22.3443 34.1638ZM21.5919 34.1568L21.3649 33.1829L20.7512 33.326L20.9781 34.2999L21.2051 35.2738L21.8189 35.1307L21.5919 34.1568ZM20.9781 34.2999L20.7512 33.326L20.1374 33.469L20.3643 34.4429L20.5913 35.4168L21.2051 35.2738L20.9781 34.2999ZM20.3643 34.4429L20.1374 33.469C20.1539 33.4652 20.1746 33.4625 20.1977 33.463C20.2208 33.4635 20.2402 33.467 20.2543 33.4709C20.2819 33.4785 20.2735 33.4833 20.2295 33.4487L19.6119 34.2352L18.9944 35.0217C19.4212 35.3569 19.9756 35.5603 20.5913 35.4168L20.3643 34.4429ZM19.6119 34.2352L20.2295 33.4487L19.6157 32.9667L18.9981 33.7532L18.3806 34.5398L18.9944 35.0217L19.6119 34.2352ZM18.9981 33.7532L19.6157 32.9667L19.0019 32.4848L18.3843 33.2713L17.7668 34.0578L18.3806 34.5398L18.9981 33.7532ZM18.3843 33.2713L19.0019 32.4848C18.6121 32.1787 18.1269 31.9669 17.5716 32.0005L17.6319 32.9986L17.6923 33.9968C17.6843 33.9973 17.6767 33.9968 17.6708 33.9959C17.6649 33.9951 17.6636 33.9942 17.6674 33.9956C17.6757 33.9986 17.7091 34.0125 17.7668 34.0578L18.3843 33.2713ZM17.6319 32.9986L17.5716 32.0005L16.9578 32.0376L17.0181 33.0357L17.0785 34.0339L17.6923 33.9968L17.6319 32.9986ZM17.0181 33.0357L16.9578 32.0376L16.344 32.0747L16.4043 33.0728L16.4647 34.071L17.0785 34.0339L17.0181 33.0357ZM16.4043 33.0728L16.344 32.0747C16.0488 32.0925 15.7545 32.13 15.4614 32.1869L15.6519 33.1686L15.8424 34.1503C16.051 34.1098 16.2583 34.0835 16.4647 34.071L16.4043 33.0728ZM15.6519 33.1686L15.4614 32.1869L14.8476 32.306L15.0381 33.2877L15.2286 34.2694L15.8424 34.1503L15.6519 33.1686ZM15.0381 33.2877L14.8476 32.306L14.2338 32.4251L14.4243 33.4068L14.6148 34.3885L15.2286 34.2694L15.0381 33.2877ZM14.4243 33.4068L14.2338 32.4251C14.0289 32.4649 13.8253 32.4896 13.6228 32.4995L13.6719 33.4983L13.721 34.4971C14.0201 34.4824 14.3182 34.4461 14.6148 34.3885L14.4243 33.4068ZM13.6719 33.4983L13.6228 32.4995L13.009 32.5297L13.0581 33.5285L13.1072 34.5273L13.721 34.4971L13.6719 33.4983ZM13.0581 33.5285L13.009 32.5297L12.3952 32.5599L12.4443 33.5587L12.4934 34.5575L13.1072 34.5273L13.0581 33.5285ZM12.4443 33.5587L12.3952 32.5599C11.97 32.5808 11.5706 32.7096 11.2048 32.9137L11.6919 33.787L12.1791 34.6603C12.3149 34.5846 12.4171 34.5612 12.4934 34.5575L12.4443 33.5587ZM11.6919 33.787L11.2048 32.9137L10.591 33.2561L11.0781 34.1294L11.5653 35.0027L12.1791 34.6603L11.6919 33.787ZM11.0781 34.1294L10.591 33.2561L9.97711 33.5985L10.4643 34.4718L10.9515 35.3451L11.5653 35.0027L11.0781 34.1294ZM10.4643 34.4718L9.97711 33.5985C9.88417 33.6504 9.84351 33.6455 9.8301 33.6439L9.71189 34.6369L9.59368 35.6299C10.0819 35.688 10.5429 35.5731 10.9515 35.3451L10.4643 34.4718ZM9.71189 34.6369L9.8301 33.6439L9.2163 33.5709L9.09809 34.5639L8.97988 35.5568L9.59368 35.6299L9.71189 34.6369ZM9.09809 34.5639L9.2163 33.5709L8.6025 33.4978L8.48429 34.4908L8.36608 35.4838L8.97988 35.5568L9.09809 34.5639ZM8.48429 34.4908L8.6025 33.4978C8.36343 33.4693 8.12427 33.4366 7.88504 33.3995L7.73189 34.3877L7.57874 35.3759C7.8411 35.4166 8.10355 35.4525 8.36608 35.4838L8.48429 34.4908ZM7.73189 34.3877L7.88504 33.3995L7.27124 33.3044L7.11809 34.2926L6.96494 35.2808L7.57874 35.3759L7.73189 34.3877ZM7.11809 34.2926L7.27124 33.3044L6.65744 33.2092L6.50429 34.1974L6.35114 35.1857L6.96494 35.2808L7.11809 34.2926ZM6.50429 34.1974L6.65744 33.2092C6.51775 33.1876 6.36471 33.1402 6.19631 33.0567L5.75189 33.9525L5.30747 34.8483C5.64067 35.0136 5.98923 35.1296 6.35114 35.1857L6.50429 34.1974ZM5.75189 33.9525L6.19631 33.0567L5.5825 32.7522L5.13809 33.648L4.69367 34.5438L5.30747 34.8483L5.75189 33.9525ZM5.13809 33.648L5.5825 32.7522L4.9687 32.4477L4.52429 33.3435L4.07987 34.2393L4.69367 34.5438L5.13809 33.648ZM4.52429 33.3435L4.9687 32.4477C4.41099 32.171 3.8098 32.1995 3.28033 32.4984L3.77189 33.3692L4.26345 34.2401C4.26971 34.2365 4.2397 34.2541 4.18225 34.256C4.12355 34.258 4.08548 34.2421 4.07987 34.2393L4.52429 33.3435ZM3.77189 33.3692L3.28033 32.4984L2.66652 32.8448L3.15809 33.7157L3.64965 34.5865L4.26345 34.2401L3.77189 33.3692ZM3.15809 33.7157L2.66652 32.8448L2.05272 33.1913L2.54428 34.0622L3.03584 34.933L3.64965 34.5865L3.15809 33.7157ZM2.54428 34.0622L2.05272 33.1913C2.05547 33.1898 2.23759 33.0875 2.50448 33.1684C2.77336 33.2499 2.86946 33.4386 2.87291 33.4455L1.97728 33.8903L1.08165 34.3351C1.2123 34.5982 1.4665 34.9436 1.92439 35.0824C2.38028 35.2206 2.7823 35.0761 3.03584 34.933L2.54428 34.0622ZM1.97728 33.8903L2.87291 33.4455L2.5616 32.8187L1.66597 33.2635L0.770336 33.7083L1.08165 34.3351L1.97728 33.8903ZM1.66597 33.2635L2.5616 32.8187L2.25028 32.1918L1.35465 32.6366L0.459024 33.0814L0.770336 33.7083L1.66597 33.2635ZM1.35465 32.6366L2.25028 32.1918C2.24358 32.1783 2.24162 32.1715 2.24151 32.1712C2.24147 32.171 2.24274 32.1756 2.24333 32.1839C2.24393 32.1924 2.24357 32.2012 2.24243 32.209C2.24131 32.2167 2.23993 32.2201 2.2405 32.2186L1.30092 31.8762L0.361346 31.5339C0.168993 32.0618 0.219699 32.5995 0.459024 33.0814L1.35465 32.6366ZM1.30092 31.8762L2.2405 32.2186L2.46414 31.6048L1.52457 31.2624L0.58499 30.9201L0.361346 31.5339L1.30092 31.8762ZM1.52457 31.2624L2.46414 31.6048L2.68779 30.991L1.74821 30.6486L0.808634 30.3063L0.58499 30.9201L1.52457 31.2624ZM1.74821 30.6486L2.68779 30.991C2.79663 30.6922 2.88096 30.3899 2.93948 30.0843L1.95732 29.8962L0.975167 29.7082C0.937632 29.9042 0.882548 30.1034 0.808634 30.3063L1.74821 30.6486ZM1.95732 29.8962L2.93948 30.0843L3.05702 29.4705L2.07486 29.2824L1.09271 29.0944L0.975167 29.7082L1.95732 29.8962ZM2.07486 29.2824L3.05702 29.4705L3.17455 28.8567L2.1924 28.6686L1.21025 28.4806L1.09271 29.0944L2.07486 29.2824ZM2.1924 28.6686L3.17455 28.8567C3.28157 28.2979 3.12625 27.7816 2.83746 27.3553L2.00957 27.9162L1.18168 28.4771C1.21109 28.5205 1.21313 28.5374 1.21099 28.5286C1.20996 28.5243 1.20858 28.5165 1.20832 28.5063C1.20806 28.496 1.20901 28.487 1.21025 28.4806L2.1924 28.6686ZM2.00957 27.9162L2.83746 27.3553L2.42162 26.7415L1.59373 27.3024L0.765834 27.8633L1.18168 28.4771L2.00957 27.9162ZM1.59373 27.3024L2.42162 26.7415L2.00578 26.1277L1.17788 26.6886L0.349991 27.2495L0.765834 27.8633L1.59373 27.3024ZM1.17788 26.6886L2.00578 26.1277C1.98309 26.0943 1.99081 26.0939 1.99667 26.1246C1.99952 26.1395 2.001 26.1572 2.00002 26.1761C1.99904 26.1949 1.9959 26.2097 1.99312 26.2191L1.03398 25.9362L0.0748268 25.6533C-0.0976521 26.2381 0.0421126 26.7951 0.349991 27.2495L1.17788 26.6886ZM1.03398 25.9362L1.99312 26.2191L2.17417 25.6053L1.21502 25.3224L0.255871 25.0395L0.0748268 25.6533L1.03398 25.9362ZM1.21502 25.3224L2.17417 25.6053L2.35521 24.9915L1.39606 24.7086L0.436914 24.4257L0.255871 25.0395L1.21502 25.3224ZM1.39606 24.7086L2.35521 24.9915C2.48291 24.5586 2.48466 24.1137 2.35973 23.6796L1.39874 23.9562L0.437757 24.2328C0.4572 24.3004 0.457161 24.3571 0.436914 24.4257L1.39606 24.7086ZM1.39874 23.9562L2.35973 23.6796L2.18305 23.0658L1.22207 23.3424L0.261085 23.619L0.437757 24.2328L1.39874 23.9562ZM1.22207 23.3424L2.18305 23.0658L2.00638 22.452L1.0454 22.7286L0.0844131 23.0052L0.261085 23.619L1.22207 23.3424ZM1.0454 22.7286L2.00638 22.452C2.00836 22.4589 2.01087 22.4707 2.01171 22.4861C2.01256 22.5016 2.01146 22.5162 2.00928 22.5284C2.00473 22.5538 1.99889 22.5513 2.02012 22.5184L1.17987 21.9762L0.339624 21.434C0.0461762 21.8888 -0.0795926 22.4354 0.0844131 23.0052L1.0454 22.7286ZM1.17987 21.9762L2.02012 22.5184L2.4162 21.9046L1.57595 21.3624L0.735701 20.8202L0.339624 21.434L1.17987 21.9762ZM1.57595 21.3624L2.4162 21.9046L2.81228 21.2908L1.97203 20.7486L1.13178 20.2064L0.735701 20.8202L1.57595 21.3624ZM1.97203 20.7486L2.81228 21.2908C3.03281 20.9491 3.19373 20.5778 3.26795 20.1794L2.28486 19.9962L1.30178 19.8131C1.28256 19.9163 1.23492 20.0466 1.13178 20.2064L1.97203 20.7486ZM2.28486 19.9962L3.26795 20.1794L3.38229 19.5656L2.3992 19.3824L1.41611 19.1993L1.30178 19.8131L2.28486 19.9962ZM2.3992 19.3824L3.38229 19.5656L3.49663 18.9518L2.51354 18.7686L1.53045 18.5855L1.41611 19.1993L2.3992 19.3824ZM2.51354 18.7686L3.49663 18.9518C3.56731 18.5724 3.56294 18.1901 3.48426 17.8123L2.50527 18.0162L1.52628 18.2201C1.55207 18.344 1.55322 18.4633 1.53045 18.5855L2.51354 18.7686ZM2.50527 18.0162L3.48426 17.8123L3.35643 17.1985L2.37743 17.4024L1.39844 17.6063L1.52628 18.2201L2.50527 18.0162ZM2.37743 17.4024L3.35643 17.1985L3.22859 16.5847L2.2496 16.7886L1.2706 16.9925L1.39844 17.6063L2.37743 17.4024ZM2.2496 16.7886L3.22859 16.5847C3.19829 16.4393 3.19257 16.2982 3.20976 16.1572L2.21711 16.0362L1.22446 15.9152C1.18049 16.2759 1.19643 16.6364 1.2706 16.9925L2.2496 16.7886ZM2.21711 16.0362L3.20976 16.1572L3.28459 15.5434L2.29194 15.4224L1.29928 15.3014L1.22446 15.9152L2.21711 16.0362ZM2.29194 15.4224L3.28459 15.5434L3.35941 14.9296L2.36676 14.8086L1.37411 14.6876L1.29928 15.3014L2.29194 15.4224ZM2.36676 14.8086L3.35941 14.9296C3.41558 14.4689 3.32681 14.0258 3.13074 13.6207L2.23059 14.0562L1.33044 14.4918C1.37709 14.5882 1.3791 14.6467 1.37411 14.6876L2.36676 14.8086ZM2.23059 14.0562L3.13074 13.6207L2.83374 13.0069L1.93358 13.4424L1.03343 13.878L1.33044 14.4918L2.23059 14.0562ZM1.93358 13.4424L2.83374 13.0069L2.53673 12.3931L1.63657 12.8286L0.736418 13.2642L1.03343 13.878L1.93358 13.4424ZM1.63657 12.8286L2.53673 12.3931C2.52011 12.3587 2.51807 12.3419 2.51781 12.3396C2.51761 12.3378 2.51762 12.3368 2.5177 12.3358C2.51777 12.3346 2.51809 12.3313 2.51971 12.3249L1.55113 12.0762L0.582552 11.8275C0.454705 12.3254 0.520519 12.818 0.736418 13.2642L1.63657 12.8286ZM1.55113 12.0762L2.51971 12.3249L2.67732 11.7111L1.70874 11.4624L0.740158 11.2137L0.582552 11.8275L1.55113 12.0762ZM1.70874 11.4624L2.67732 11.7111L2.83492 11.0973L1.86634 10.8486L0.897763 10.5999L0.740158 11.2137L1.70874 11.4624ZM1.86634 10.8486L2.83492 11.0973C2.92669 10.7399 2.95827 10.3754 2.92597 10.0085L1.92982 10.0962L0.933676 10.1839C0.945534 10.3186 0.934792 10.4557 0.897763 10.5999L1.86634 10.8486ZM1.92982 10.0962L2.92597 10.0085L2.87194 9.39472L1.87579 9.48241L0.879644 9.5701L0.933676 10.1839L1.92982 10.0962ZM1.87579 9.48241L2.87194 9.39472L2.81791 8.78092L1.82176 8.86861L0.825612 8.9563L0.879644 9.5701L1.87579 9.48241ZM1.82176 8.86861L2.81791 8.78092C2.80812 8.6697 2.81992 8.55312 2.86176 8.42363L1.91018 8.11621L0.958611 7.80878C0.838392 8.1809 0.791247 8.56592 0.825612 8.9563L1.82176 8.86861ZM1.91018 8.11621L2.86176 8.42363L3.06006 7.80983L2.10849 7.50241L1.15691 7.19498L0.958611 7.80878L1.91018 8.11621ZM2.10849 7.50241L3.06006 7.80983L3.25836 7.19603L2.30679 6.88861L1.35521 6.58118L1.15691 7.19498L2.10849 7.50241ZM2.30679 6.88861L3.25836 7.19603C3.45192 6.59691 3.30698 6.02397 2.98511 5.56339L2.16542 6.13621L1.34574 6.70903C1.36798 6.74085 1.35675 6.7361 1.34941 6.69706C1.34583 6.67797 1.34426 6.65597 1.34581 6.63307C1.34734 6.61033 1.35155 6.59252 1.35521 6.58118L2.30679 6.88861ZM2.16542 6.13621L2.98511 5.56339L2.55616 4.94959L1.73648 5.52241L0.916799 6.09523L1.34574 6.70903L2.16542 6.13621ZM1.73648 5.52241L2.55616 4.94959L2.12722 4.33579L1.30754 4.90861L0.487854 5.48143L0.916799 6.09523L1.73648 5.52241ZM1.30754 4.90861L2.12722 4.33579C2.11154 4.31336 2.13225 4.33468 2.14066 4.39546C2.14473 4.42491 2.14466 4.45564 2.1405 4.48494C2.1364 4.51379 2.12933 4.53438 2.12473 4.54527L1.20352 4.15621L0.282303 3.76715C0.024071 4.37859 0.144544 4.99017 0.487854 5.48143L1.30754 4.90861ZM1.20352 4.15621L2.12473 4.54527L2.38396 3.93147L1.46275 3.54241L0.541533 3.15335L0.282303 3.76715L1.20352 4.15621ZM1.46275 3.54241L2.38396 3.93147L2.64319 3.31767L1.72198 2.92861L0.800762 2.53955L0.541533 3.15335L1.46275 3.54241ZM1.72198 2.92861L2.64319 3.31767C2.70562 3.16985 2.76238 3.01785 2.80171 2.87108C2.83362 2.75196 2.88793 2.51974 2.84739 2.26087L1.85943 2.41561L0.871475 2.57034C0.863414 2.51888 0.861795 2.4765 0.861992 2.44687C0.862193 2.41687 0.864309 2.39387 0.86603 2.37956C0.86928 2.35254 0.872888 2.34212 0.869853 2.35344C0.867202 2.36334 0.86107 2.38392 0.849183 2.41696C0.837471 2.44952 0.821634 2.49013 0.800762 2.53955L1.72198 2.92861ZM1.85943 2.41561L2.84739 2.26087L2.81243 2.03768L1.82447 2.19241L0.836517 2.34714L0.871475 2.57034L1.85943 2.41561ZM1.82447 2.19241L2.81243 2.03768L2.77747 1.81448L1.78952 1.96921L0.80156 2.12395L0.836517 2.34714L1.82447 2.19241ZM1.78952 1.96921L2.77747 1.81448C2.81372 2.04594 2.75533 2.24955 2.67364 2.39368C2.60068 2.52243 2.51616 2.59389 2.48259 2.62007C2.42136 2.66784 2.40083 2.66397 2.493 2.62968L2.14429 1.69244L1.79559 0.755209C1.63696 0.81423 1.4319 0.903137 1.25241 1.04316C1.09616 1.16505 0.708957 1.53269 0.80156 2.12395L1.78952 1.96921ZM2.14429 1.69244L2.493 2.62968L3.1068 2.40131L2.75809 1.46407L2.40939 0.526841L1.79559 0.755209L2.14429 1.69244Z" fill="#58423C"/>
  </g>
</svg>
